<svg xmlns="http://www.w3.org/2000/svg" viewBox="0 0 1296 1817.83"><defs><style>.cls-1{fill:red;}</style></defs><title>Asset 3</title><g id="Layer_2" data-name="Layer 2"><g id="Layer_1-2" data-name="Layer 1"><rect class="cls-1" x="37.76" y="37.76" width="182.31" height="182.31" transform="translate(128.91 -53.4) rotate(45)"/><rect class="cls-1" x="297.3" y="37.76" width="182.31" height="182.31" transform="translate(204.93 -236.92) rotate(45)"/><rect class="cls-1" x="556.84" y="37.76" width="182.31" height="182.31" transform="translate(280.95 -420.45) rotate(45)"/><rect class="cls-1" x="816.39" y="37.76" width="182.31" height="182.31" transform="translate(356.97 -603.97) rotate(45)"/><rect class="cls-1" x="1075.93" y="37.76" width="182.31" height="182.31" transform="translate(432.99 -787.5) rotate(45)"/><rect class="cls-1" x="37.76" y="297.76" width="182.31" height="182.31" transform="translate(312.76 22.75) rotate(45)"/><rect class="cls-1" x="297.3" y="297.76" width="182.31" height="182.31" transform="translate(388.78 -160.77) rotate(45)"/><rect class="cls-1" x="556.84" y="297.76" width="182.31" height="182.31" transform="translate(464.8 -344.29) rotate(45)"/><rect class="cls-1" x="816.39" y="297.76" width="182.31" height="182.31" transform="translate(540.82 -527.82) rotate(45)"/><rect class="cls-1" x="1075.93" y="297.76" width="182.31" height="182.31" transform="translate(616.84 -711.34) rotate(45)"/><rect class="cls-1" x="37.76" y="557.76" width="182.31" height="182.31" transform="translate(496.61 98.91) rotate(45)"/><rect class="cls-1" x="297.3" y="557.76" width="182.31" height="182.31" transform="translate(572.63 -84.62) rotate(45)"/><rect class="cls-1" x="556.84" y="557.76" width="182.31" height="182.31" transform="translate(648.65 -268.14) rotate(45)"/><rect class="cls-1" x="816.39" y="557.76" width="182.31" height="182.31" transform="translate(724.67 -451.67) rotate(45)"/><rect class="cls-1" x="1075.93" y="557.76" width="182.31" height="182.31" transform="translate(800.68 -635.19) rotate(45)"/><rect class="cls-1" x="37.76" y="817.76" width="182.31" height="182.31" transform="translate(680.46 175.06) rotate(45)"/><rect class="cls-1" x="297.3" y="817.76" width="182.31" height="182.31" transform="translate(756.48 -8.47) rotate(45)"/><rect class="cls-1" x="556.84" y="817.76" width="182.31" height="182.31" transform="translate(832.49 -191.99) rotate(45)"/><rect class="cls-1" x="816.39" y="817.76" width="182.31" height="182.31" transform="translate(908.51 -375.51) rotate(45)"/><rect class="cls-1" x="1075.93" y="817.76" width="182.31" height="182.31" transform="translate(984.53 -559.04) rotate(45)"/><rect class="cls-1" x="37.76" y="1077.76" width="182.31" height="182.31" transform="translate(864.31 251.21) rotate(45)"/><rect class="cls-1" x="297.3" y="1077.76" width="182.31" height="182.31" transform="translate(940.32 67.69) rotate(45)"/><rect class="cls-1" x="556.84" y="1077.76" width="182.31" height="182.31" transform="translate(1016.34 -115.84) rotate(45)"/><rect class="cls-1" x="816.39" y="1077.76" width="182.31" height="182.31" transform="translate(1092.36 -299.36) rotate(45)"/><rect class="cls-1" x="1075.93" y="1077.76" width="182.31" height="182.31" transform="translate(1168.38 -482.89) rotate(45)"/><rect class="cls-1" x="37.76" y="1337.76" width="182.31" height="182.31" transform="translate(1048.15 327.36) rotate(45)"/><rect class="cls-1" x="297.3" y="1337.76" width="182.31" height="182.31" transform="translate(1124.17 143.84) rotate(45)"/><rect class="cls-1" x="556.84" y="1337.76" width="182.31" height="182.31" transform="translate(1200.19 -39.69) rotate(45)"/><rect class="cls-1" x="816.39" y="1337.76" width="182.31" height="182.31" transform="translate(1276.21 -223.21) rotate(45)"/><rect class="cls-1" x="1075.93" y="1337.76" width="182.31" height="182.31" transform="translate(1352.23 -406.73) rotate(45)"/><rect class="cls-1" x="37.76" y="1597.76" width="182.31" height="182.31" transform="translate(1232 403.52) rotate(45)"/><rect class="cls-1" x="297.3" y="1597.76" width="182.31" height="182.31" transform="translate(1308.02 219.99) rotate(45)"/><rect class="cls-1" x="556.84" y="1597.76" width="182.31" height="182.31" transform="translate(1384.04 36.47) rotate(45)"/><rect class="cls-1" x="816.39" y="1597.76" width="182.31" height="182.31" transform="translate(1460.06 -147.06) rotate(45)"/><rect class="cls-1" x="1075.93" y="1597.76" width="182.31" height="182.31" transform="translate(1536.07 -330.58) rotate(45)"/></g></g></svg>