<svg xmlns="http://www.w3.org/2000/svg" viewBox="0 0 748 1196.4"><defs><style>.cls-1{fill:#0019ff;}</style></defs><title>Asset 4</title><g id="Layer_2" data-name="Layer 2"><g id="Layer_1-2" data-name="Layer 1"><rect class="cls-1" y="897.4" width="149.6" height="149.6"/><rect class="cls-1" y="598.2" width="149.6" height="149.6"/><rect class="cls-1" x="149.6" y="747.8" width="149.6" height="149.6"/><rect class="cls-1" x="299.2" y="897.4" width="149.6" height="149.6"/><rect class="cls-1" y="299" width="149.6" height="149.6"/><rect class="cls-1" x="149.6" y="448.6" width="149.6" height="149.6"/><rect class="cls-1" x="299.2" y="598.2" width="149.6" height="149.6"/><rect class="cls-1" x="448.8" y="747.8" width="149.6" height="149.6"/><rect class="cls-1" x="149.6" y="1046.8" width="149.6" height="149.6"/><rect class="cls-1" x="448.8" y="1046.8" width="149.6" height="149.6"/><rect class="cls-1" x="598.4" y="897.4" width="149.6" height="149.6"/><rect class="cls-1" x="149.6" y="149.4" width="149.6" height="149.6"/><rect class="cls-1" x="299.2" y="299" width="149.6" height="149.6"/><rect class="cls-1" x="448.8" y="448.6" width="149.6" height="149.6"/><rect class="cls-1" x="598.4" y="598.2" width="149.6" height="149.6"/><rect class="cls-1" x="448.8" y="149.4" width="149.6" height="149.6"/><rect class="cls-1" x="598.4" y="299" width="149.6" height="149.6"/><rect class="cls-1" width="149.6" height="149.6"/><rect class="cls-1" x="299.2" width="149.6" height="149.6"/><rect class="cls-1" x="598.4" width="149.6" height="149.6"/></g></g></svg>