<svg xmlns="http://www.w3.org/2000/svg" viewBox="0 0 600.17 777.77"><defs><style>.cls-1{fill:#44b2e5;}</style></defs><title>Asset 2</title><g id="Layer_2" data-name="Layer 2"><g id="Publicdomainvectors.org"><path class="cls-1" d="M438.08,777.77l.25-1c-.22.32-.43.65-.64,1Z"/><path class="cls-1" d="M414.19,777.77q1.51-7.5,3-15-4.22,7.47-8.34,15Z"/><path class="cls-1" d="M392.07,777.77q1.95-13.23,3.65-26.55-6.29,13.15-12.23,26.55Z"/><path class="cls-1" d="M370.84,777.77c.16-1.71.31-3.41.47-5.11h0q1.37-15.31,2.36-30.7-7,17.74-13.5,35.82Z"/><path class="cls-1" d="M349.74,777.77q.21-6,.37-12.09h0q.4-15.39.45-30.84-6.82,21.3-12.87,42.94Z"/><path class="cls-1" d="M329.09,761.05q-.51-15.4-1.44-30.79-5.92,23.6-10.92,47.51h12.83q-.18-8.35-.47-16.72Z"/><path class="cls-1" d="M307.87,758.6q-1.46-15.3-3.3-30.55Q300,752.8,296.4,777.77h13.16q-.76-9.6-1.69-19.17Z"/><path class="cls-1" d="M286,758.36q-2.42-15.09-5.2-30.1-3,24.71-5,49.51H289q-1.39-9.72-2.95-19.41Z"/><path class="cls-1" d="M264.8,760.34q-3.33-14.79-7-29.46-1.36,23.45-1.87,46.89h12.67q-1.83-8.73-3.78-17.42Z"/><path class="cls-1" d="M243.76,764.5q-4.22-14.4-8.79-28.65.08,21,.81,41.92h11.78q-1.86-6.64-3.8-13.27Z"/><path class="cls-1" d="M222.53,771q-5.1-13.9-10.55-27.62,1.14,17.24,2.73,34.4H225c-.81-2.27-1.63-4.52-2.46-6.78Z"/><path class="cls-1" d="M193.5,777.77h8Q196,765.29,190.09,753,191.68,765.42,193.5,777.77Z"/><path class="cls-1" d="M171.41,777.77h4.66q-3.56-6.51-7.21-12.92Q170.11,771.32,171.41,777.77Z"/><path class="cls-1" d="M577.18,777.77q1.79-3.46,3.55-6.94-5.1,3.42-10.16,6.94Z"/><path class="cls-1" d="M543.61,777.77q1.88-4.07,3.72-8.14h0q6.12-13.46,11.92-27.19-20.89,16.88-40.86,35.33Z"/><path class="cls-1" d="M525.34,744.08q5.26-14,10.18-28.35-24.28,23.34-47,48.91,7.33-21.32,13.89-43.16h0q4.35-14.57,8.43-29.31Q488.05,717.93,467,745.74q6-22,11.21-44.41h0q3.49-14.94,6.62-30.08Q463.14,700,443.35,730.73q4.84-23.52,8.82-47.41h0q2.52-15.27,4.73-30.67-19.33,30.17-36.73,62,3.22-23,5.62-46.2h0q1.6-15.48,2.84-31.05-17.42,32-32.81,65.55,1.8-23.21,2.79-46.58h0q.64-15.6.94-31.25-15.8,34.62-29.4,70.54.41-24.33-.09-48.74h0q-.31-15.61-1-31.24-13.26,35.26-24.35,71.55-1.05-23.3-3-46.6h0q-1.26-15.54-2.91-31-11.07,36.5-19.9,73.78-2.49-23.08-5.79-46.1h0q-2.2-15.35-4.78-30.63-9,38.48-15.67,77.56-4-23.74-9-47.3h0q-3.17-15.06-6.68-30-6.44,38.34-10.57,77-5.3-22.29-11.39-44.34h0q-4.07-14.69-8.49-29.25-4.07,38.85-5.83,77.78-6.64-21.64-14-43h0q-4.94-14.22-10.24-28.28-1.74,40.15-1,80.15-8.26-21.81-17.36-43.17h0q-5.82-13.65-12-27.1.77,39.21,3.82,78-9.22-20-19.16-39.54h0q-6.64-13-13.59-25.79,3.14,39,8.56,77.33-10.41-19-21.49-37.42h0q-7.38-12.3-15.11-24.3,5.65,39.51,13.65,78.12-12-18.63-24.75-36.55h0Q109.88,685,101.44,673.8q7.91,37.83,18,74.57-12.6-16.62-25.84-32.5h0Q84.75,705.27,75.67,695q10.17,36.88,22.45,72.45Q84.56,752.2,70.41,737.73h0q-9.43-9.65-19.12-19,10.41,30,22.27,59H85.1q-2.28-5.88-4.5-11.79,5.72,5.82,11.32,11.79h20.49Q107,761.56,102,745.08q13.32,16,26,32.69h9.82q-7.11-25.39-13.18-51.34,17.76,25,34.12,51.34h3.47q-7.52-33.6-13.28-68,18.43,30.54,34.92,62.71-2.52-15.12-4.65-30.36-3.22-22.9-5.63-46.07,16.52,32.34,31,66.1s0,0,0-.08l0,0q-3.93-38.36-5.58-77.22,14.5,33.95,26.87,69.09c0-.65,0-1.3-.07-2,.2.58.42,1.15.62,1.73q-1.53-38.64-.73-77.56Q238,711.57,248.17,747.9q.33-15.45,1.05-30.93,1.07-23.25,3-46.5,10.14,36.51,18,73.78v0q3.21-38.48,8.71-76.75,7.88,37.44,13.48,75.41c.1-.64.2-1.27.29-1.91.1.62.2,1.24.29,1.87q5.6-38,13.48-75.59,5.5,38.16,8.73,76.59,3.15-14.93,6.67-29.73,5.29-22.27,11.38-44.28,3.18,38.61,4.05,77.26a.19.19,0,0,1,0-.07v0q10.14-36.4,22.5-71.9.81,38.83-.67,77.45c.2-.6.42-1.18.63-1.77,0,.63,0,1.27-.07,1.9q12.39-35.21,26.92-69.29-1.61,38.79-5.5,77.13,5.79-13.53,11.92-26.84,9.19-20,19.15-39.51-4,38.5-10.18,76.33s0,0,0-.06v0q16.51-32.24,35-62.91-5.88,35.48-13.68,70.16H426Q443,750.11,461.6,724q-6.33,27.19-13.78,53.82h8.6l2.24-3q12.6-16.62,25.83-32.48-5.37,17.88-11.25,35.44h18.89q7-7.49,14.08-14.74-2.77,7.4-5.62,14.74h11.55q6.83-16.66,13.19-33.69Z"/><path class="cls-1" d="M48.12,762.53q-10-8.62-20.25-16.87,6.91,16.25,14.26,32.11H65.29Q56.8,770,48.12,762.54Z"/><path class="cls-1" d="M8.57,777.77h3.48Q9.4,776,6.73,774.17C7.34,775.37,8,776.57,8.57,777.77Z"/><path class="cls-1" d="M600.17,777.77V761.29q-4.26,8.3-8.63,16.48Z"/><path class="cls-1" d="M585.19,650.56h0q4.71-14.65,9-29.57-25.69,21.87-49.94,46,6.47-22.19,12.09-44.86h0q3.74-15.12,7.21-30.41c-16.2,16.26-31.84,33.3-47,50.94q5.08-22.74,9.31-45.91h0q2.87-15.45,5.34-31.05Q508,593.2,486.51,622.79q3.81-24.21,6.74-48.75h0q1.85-15.7,3.39-31.5-21,29.13-40.12,60.05,2.21-23.54,3.57-47.28h0c.61-10.55,1.07-21.14,1.46-31.75q-19.16,31.19-36.31,64,.75-23.67.67-47.46h0q-.06-15.88-.48-31.79-17.61,33.91-33.07,69.27-.72-24.69-2.35-49.42h0q-1-15.83-2.45-31.64-15.07,34.78-28,70.7-2.15-23.53-5.17-47h0q-2-15.66-4.38-31.27-12.9,36.18-23.58,73.3-3.62-23.2-8-46.29h0q-3-15.39-6.27-30.72-10.91,38.37-19.46,77.47-5.2-23.76-11.3-47.27h0q-3.9-15-8.16-30Q265,523.8,259,562.66q-6.41-22.17-13.6-44.06h0q-4.81-14.58-10-29-5.9,39.13-9.5,78.46-7.74-21.42-16.23-42.49h0q-5.68-14-11.7-27.91-3.6,40.64-4.74,81.23-9.4-21.47-19.61-42.42h0q-6.54-13.39-13.4-26.58-1,39.85.27,79.44-10.26-19.57-21.26-38.61h0q-7.32-12.69-15-25.12,1.43,39.81,5.12,79.11Q118,586.23,105.84,568.4h0q-8.06-11.89-16.45-23.5,3.93,40.56,10.24,80.32-13-17.94-26.79-35.13h0Q64,579.08,55,568.38q6.3,39,14.8,77.06Q56.22,629.57,42,614.5h0q-9.43-10.07-19.14-19.78Q31.56,632.93,42.34,670c-9.65-9.58-19.46-18.94-29.48-28h0Q6.47,636.21,0,630.58v18q8.12,25.62,17.21,50.51Q8.69,691.88,0,685v19.94q23.94,18.29,46.7,38.62c-.23-.59-.45-1.19-.68-1.78l1.23,1.09q-13.68-34.94-25.36-71.41,24.92,22.47,48.3,47.2-4.59-14.49-8.87-29.19-6.42-22.1-12.07-44.65,23.46,25,45.27,52a.24.24,0,0,1,0-.08l0,0Q85.26,659.43,78.16,621q21.89,27.29,42,56.51c-.12-.65-.23-1.3-.34-1.94l1,1.44q-6.87-38.17-11.57-77.22,20.09,29.52,38.3,60.75c-1.23-10.33-2.3-20.7-3.28-31.1q-2.19-23.44-3.56-47.12,18.24,31.5,34.49,64.5s0-.06,0-.08l0,0q-2.18-39.12-2-78.64Q189.4,601.4,203.59,636c0-.67,0-1.33,0-2,.23.58.48,1.14.71,1.72q.28-39.23,2.89-78.61,14.13,34.88,26.11,70.83,1.05-15.61,2.5-31.23Q238,573.23,241,549.81q12,36.21,21.72,73.3s0-.06,0-.08v0q5-38.67,12.4-77,9.72,37.34,17.19,75.3c.12-.64.26-1.28.39-1.92.12.62.25,1.25.37,1.88q7.46-38,17.19-75.49,7.35,38.24,12.43,76.87,3.87-14.85,8.14-29.57,6.41-22.12,13.59-44,5,38.88,7.72,77.92a.14.14,0,0,1,0-.07v0q12-36,26.15-71,2.63,39.27,2.94,78.48c.24-.59.49-1.17.73-1.76,0,.65,0,1.3,0,1.95q14.21-34.65,30.5-68,.17,39.42-2,78.54,6.49-13.23,13.32-26.22,10.26-19.54,21.24-38.53-2.24,39.33-6.73,78.1l0-.06v0q18.22-31.31,38.38-61-4.62,39-11.46,77.18l1-1.49c-.12.63-.22,1.27-.34,1.91q20.13-29.29,42.07-56.72-7,38.37-16.24,75.72,8.72-10.85,17.73-21.37,13.53-15.82,27.67-30.87-9.35,37.53-20.79,73.83s0-.06,0-.06v0q23.43-24.81,48.43-47.39-11.61,36.47-25.23,71.47l1.27-1.11c-.22.57-.44,1.16-.67,1.74q24.9-22.26,51.23-42.14-13.83,35.13-29.6,68.59,10.47-7.8,21.13-15.29,8.51-5.89,17.12-11.59V721.17l-4.77,3.3c1.6-3.64,3.19-7.31,4.77-11v-42q-15.45,11.79-30.42,24.39Q577.87,673.51,585.19,650.56Z"/><path class="cls-1" d="M25.36,770.07Q12,741.9,0,712.49v39.44q12.83,8.8,25.37,18.18l0-.07Z"/><path class="cls-1" d="M566.3,539.55q4.16-23.52,7.42-47.42h0q2.24-15.93,4.06-32-25,26.28-48.12,54.75,2.77-24.92,4.67-50.1h0q1.17-16.12,2-32.33-22.65,28.13-43.5,58.11,1.19-24.1,1.5-48.38h0q.22-16.19.08-32.44-20.86,30.34-39.8,62.36-.3-24.12-1.45-48.33h0q-.75-16.15-1.9-32.33-19.41,33.24-36.74,68-1.85-25-4.61-50.08h0q-1.77-16-3.91-32-16.87,34.29-31.64,69.84-3.26-23.77-7.37-47.44h0q-2.71-15.79-5.85-31.52Q346.49,404.08,333.93,441q-4.73-23.31-10.22-46.48h0Q320,379.06,316,363.69,303.17,402,292.7,441.07q-6.37-23.76-13.62-47.23h0q-4.63-15-9.64-29.9-10.12,38.51-18,77.58-7.51-22.06-15.82-43.8h0q-5.53-14.5-11.43-28.81Q216.48,408.3,211,448q-8.83-21.19-18.42-42h0c-4.27-9.25-8.68-18.41-13.15-27.54Q174,419.6,171,460.8q-10.53-21.1-21.86-41.66h0c-4.83-8.76-9.75-17.48-14.82-26.06q-2.79,40.51-3.27,80.87-11.34-19.1-23.37-37.66h0q-8-12.36-16.37-24.46Q91,452.47,93,492.73q-12.44-17.89-25.56-35.11h0c-5.82-7.69-11.78-15.23-17.81-22.69q2.22,41.58,6.84,82.51Q42.4,500.18,27.63,483.72h0Q18.18,473.18,8.47,463q4.69,40.2,11.61,79.53Q10.18,532.19,0,522.27v25.57q23.12,22.1,44.85,46s0-.05,0-.07l0,0q-7.7-38.61-13.18-78.21,23.46,26.08,45.21,54.19c-.09-.66-.17-1.34-.26-2l1.1,1.39q-5.24-39.3-8.26-79.35,21.77,28.49,41.69,58.78-1.16-15.87-1.91-31.83-1.17-24-1.48-48.17,20,30.61,38,62.88a.2.2,0,0,0,0-.08l0,0q-.4-39.89,1.5-80.07,18,32.58,34,66.6l.12-2c.26.56.54,1.12.8,1.69q2.1-39.81,6.51-79.66,15.93,34.38,29.75,70,1.78-15.78,4-31.52,3.28-23.68,7.37-47.27,13.8,35.91,25.4,72.81s0,0,0-.08v0q6.9-38.9,16.1-77.35,11.57,37.23,20.89,75.21c.16-.65.33-1.3.49-1.94.15.63.32,1.26.47,1.89q9.3-38,20.88-75.4,9.21,38.32,16.13,77.17,4.62-14.79,9.62-29.41,7.53-22,15.81-43.66Q362.46,467.6,367,507a.08.08,0,0,1,0-.07v0q13.82-35.67,29.79-70.19,4.43,39.74,6.56,79.52l.82-1.74.12,2q16-34.1,34.07-66.82,2,40.08,1.58,80,7.2-12.93,14.72-25.61Q466,485.05,478,466.56q-.51,40.15-3.3,79.88a.09.09,0,0,1,0-.06v0c13.29-20.26,27.2-40,41.77-59q-2.94,40-8.15,79.3l1.13-1.47c-.09.67-.17,1.34-.26,2q21.76-28.18,45.31-54.42-5.43,39.55-13.06,78.2,9.35-10.35,19-20.34Q574.93,555.62,590,541.4,582.2,580.28,572.24,618s0,0,0,0v0q13.71-12.87,27.89-25V569.21l-.09.08.09-.38V506.07Q582.88,522.3,566.3,539.55Z"/><path class="cls-1" d="M6.73,590.81Q3.2,576.14,0,561.29V608q7.26,6.49,14.4,13.17Q10.4,606.07,6.73,590.81Z"/><path class="cls-1" d="M600.17,479.18V416.39q-3.63,36.09-9,71.53Q595.64,483.53,600.17,479.18Z"/><path class="cls-1" d="M575.41,355.49h0c.33-11,.59-22.08.72-33.16q-24.32,27.12-46.89,56.15.16-24.66-.56-49.46h0q-.46-16.53-1.31-33.12-22.59,29.48-43.29,60.76-1.36-24.58-3.57-49.2h0Q479,291,477.2,274.56q-21.27,32.54-40.42,66.75-3-25.41-6.87-50.77h0q-2.49-16.23-5.36-32.42-18.68,33.83-35.29,69-4.35-24-9.57-47.86h0c-2.29-10.62-4.75-21.2-7.31-31.76q-16.58,35.6-31,72.35Q335.6,296.4,329,273.15h0q-4.44-15.51-9.23-30.91-14.68,38.16-27.05,77.29-7.54-23.76-15.95-47.19h0q-5.37-15-11.12-29.83-12,38.6-21.67,77.87-8.62-21.94-18-43.53h0q-6.27-14.4-12.91-28.59-9.57,39.67-16.84,79.81-9.94-21-20.62-41.5h0c-4.76-9.13-9.65-18.16-14.6-27.17q-7.32,41.58-12.16,83.38-11.66-20.75-24.1-40.9h0c-5.31-8.6-10.7-17.15-16.26-25.54q-4.56,41.18-6.8,82.3Q89.26,340,76.17,321.89h0q-8.72-12.06-17.76-23.79-2,41.47-1.77,82.69-13.47-17.32-27.6-34h0Q19.62,335.7,9.89,324.94q.48,42.63,3.43,84.72Q6.72,402.43,0,395.33v29.9q17.25,17.91,33.66,36.84L33.48,460l1.18,1.35q-3.58-40.43-4.93-81.49,23.44,27.42,45.07,56.82-.48-16.25-.54-32.57-.14-24.54.59-49.22,21.69,29.76,41.47,61.28a.27.27,0,0,1,0-.09l0,0q1.34-40.67,5-81.49Q141.18,366.5,159,400l.21-2.07c.29.56.6,1.11.9,1.67q3.87-40.4,10.11-80.71,17.75,33.9,33.4,69.11Q206.12,372,209,356.14q4.4-23.88,9.57-47.65,15.63,35.63,29.09,72.33s0-.06,0-.08v0q8.76-39.09,19.8-77.64,13.41,37.13,24.6,75.1c.19-.65.39-1.3.58-2,.18.64.38,1.27.57,1.9q11.14-38.06,24.58-75.3,11.06,38.42,19.83,77.45,5.35-14.71,11.1-29.24,8.63-21.85,18-43.35,8.68,39.42,15.05,79.25s0-.07,0-.07v0q15.64-35.29,33.43-69.34,6.24,40.2,10.17,80.56c.31-.57.62-1.14.92-1.71.07.67.15,1.34.21,2Q444.41,365,464.27,332.9q3.72,40.73,5.12,81.38,7.91-12.63,16.12-25,12.39-18.57,25.43-36.57,1.23,41,.15,81.66a.08.08,0,0,1,0-.06v0q21.64-29.48,45.15-57.06-1.26,41-4.82,81.43l1.21-1.4c-.06.68-.11,1.37-.18,2.05q23-26.62,47.68-51.23v-30Q586.22,392.23,572.81,407,574.55,381.37,575.41,355.49Z"/><path class="cls-1" d="M563,215.87h0c-.76-11.26-1.69-22.53-2.69-33.81q-24.35,28.62-46.79,59.16-2.42-25-5.69-50.07h0q-2.18-16.72-4.73-33.43Q480,189.57,459,223.19q-4.11-25.75-9.14-51.43h0q-3.22-16.42-6.81-32.81-20.47,33.36-38.94,68.14-5.43-24.24-11.77-48.28h0q-4.19-16.06-8.78-32-18.39,35.33-34.64,71.89-7-23.56-14.67-46.88h0q-5.16-15.57-10.7-31Q307,158.84,292.7,198q-8.68-23.76-18.26-47.14h0q-6.1-15-12.6-29.76-13.8,38.69-25.37,78.17-9.75-21.84-20.25-43.26h0q-7-14.28-14.38-28.37-11.4,40-20.51,80.48-11-20.74-22.81-41h0q-7.87-13.51-16.07-26.8-9.17,42-15.86,84.45-12.78-20.39-26.35-40.14h0c-5.79-8.43-11.66-16.8-17.68-25q-6.33,41.84-10.35,83.73Q58.78,225.06,44.65,207.5h0q-9.43-11.72-19.15-23.13-3.78,42.33-5.22,84.48Q10.31,257.3,0,246.1v34.48Q19.77,302,38.44,324.73q.21-16.62.83-33.3.9-25.1,2.66-50.28,23.42,28.91,45,59.67s0-.06,0-.08l0,0q3.1-41.44,8.57-82.93Q117,249.1,136.68,282c.09-.7.2-1.4.3-2.1l1,1.64q5.7-41,13.73-81.76,19.55,33.42,37.05,68.24,3.24-16.1,6.9-32.1c3.66-16.07,7.55-32.1,11.78-48q17.44,35.32,32.77,71.84s0-.05,0-.08l0,0q10.6-39.3,23.49-77.94,15.25,37,28.3,75c.22-.65.45-1.3.68-2l.66,1.91q13-38.07,28.29-75.22,12.9,38.51,23.52,77.74,6.09-14.64,12.58-29.07C364.26,215.61,371,201.23,378,187Q388.5,226.75,396.7,267a.08.08,0,0,1,0-.07v0q17.49-34.92,37.08-68.49,8.06,40.67,13.79,81.6l1-1.7c.1.69.2,1.38.29,2.07q19.6-33,41.23-64.36,5.5,41.38,8.66,82.8,8.6-12.35,17.53-24.37,13.42-18.12,27.51-35.59,3,41.82,3.59,83.43s0-.05,0-.05v0Q570.84,293.75,596,267.2q.42,42-1.5,83.55l1.31-1.35c0,.7-.07,1.41-.1,2.11q2.21-2.29,4.44-4.57V228.34q-17.7,18.56-34.58,38.08Q564.75,241.19,563,215.87Z"/><path class="cls-1" d="M597.27,102.73c-1.22-11.5-2.61-23-4.07-34.51Q567.15,96,542.92,125.79q-3.48-25.5-7.81-50.95h0q-2.89-17-6.16-34-24.87,31.18-47.76,64.21Q476,79,469.81,53h0q-3.93-16.65-8.26-33.21Q439.26,52.63,419,87.05q-6.56-24.48-14-48.71h0c-3.26-10.8-6.71-21.54-10.25-32.25q-20.19,35-38.33,71.4-8.06-23.65-16.88-47.06h0Q333.75,15.15,327.63,0H327Q308.76,37.64,292.7,76.42q-9.85-23.76-20.58-47.1h0Q265.34,14.57,258.23,0h-.35Q242.33,38.6,229,78.08q-10.86-21.7-22.47-43h0Q198.75,20.9,190.65,6.93q-13.23,40.24-24.18,81.16-12.14-20.5-25-40.51h0Q132.89,34.23,124,21.14q-11,42.53-19.57,85.52-13.92-20-28.59-39.37h0C69.53,59,63.19,50.8,56.69,42.78q-8.1,42.5-13.89,85.16Q28.31,110.17,13.12,93.11h0Q6.61,85.79,0,78.61V210.52l2.08,2.27q.88-17,2.2-34Q6.22,153.11,9,127.43q25.14,28.06,48.45,58s0-.08,0-.08l0,0q4.86-42.21,12.11-84.35Q93,131.65,114.37,163.94c.13-.71.27-1.42.4-2.13l1.08,1.61q7.5-41.55,17.35-82.81,21.38,32.92,40.69,67.38c2.64-10.84,5.46-21.63,8.36-32.4,4.41-16.2,9-32.36,14-48.42q19.27,35,36.46,71.36s0-.06,0-.08l0,0Q245.19,99,259.93,60.25q17.1,36.9,32,74.88c.25-.65.51-1.3.77-1.95.25.64.51,1.27.76,1.91Q308.35,97,325.46,60q14.71,38.6,27.22,78,6.82-14.57,14.05-28.9C374,94.7,381.41,80.41,389.16,66.35q12.34,40,22.39,80.58s0-.06,0-.07v0q19.32-34.56,40.72-67.63,9.87,41.12,17.41,82.63c.37-.56.75-1.11,1.11-1.67l.39,2.1q21.4-32.4,44.8-63.12,7.28,42,12.2,84.2,9.33-12,18.93-23.75,14.46-17.65,29.61-34.6,4.69,42.66,7,85.21s0-.06.05-.06v0q8.07-8.9,16.32-17.57V132.29q-1.3-14.77-2.9-29.56Z"/><path class="cls-1" d="M581.75,0Q577,5.15,572.34,10.36,571.42,5.17,570.49,0H545.55q6.8,33.93,12.1,68,10-11.7,20.33-23.13Q588.92,32.77,600.17,21V0Z"/><path class="cls-1" d="M369.15,0H354q3.15,8.39,6.22,16.82Q364.59,8.36,369.15,0Z"/><path class="cls-1" d="M426.45,26.83v0Q434.86,13.31,443.57,0H418.33q4.17,13.41,8.07,26.9A.13.13,0,0,1,426.45,26.83Z"/><path class="cls-1" d="M493.06,42.12c.15.71.31,1.42.47,2.13Q510,21.67,527.43,0h-46Q487,21.83,491.85,43.76Z"/><path class="cls-1" d="M167.4,0H141.13q9.12,13.86,17.9,28Q163.05,14,167.4,0Z"/><path class="cls-1" d="M225.23,17.3l0,0q3.12-8.7,6.37-17.34H215.88q4.73,8.65,9.32,17.38A.22.22,0,0,1,225.23,17.3Z"/><path class="cls-1" d="M292.71,11.63c.28.64.57,1.27.85,1.91q3-6.79,6-13.54H285.76q3.08,6.78,6.08,13.59Z"/><path class="cls-1" d="M28.05,70.06l0,0Q33.5,35,40.51,0H15.61q-1.14,6.3-2.23,12.6Q7.67,6.25,1.86,0H0V38.72Q14.29,54.14,28,70.15A.2.2,0,0,0,28.05,70.06Z"/><path class="cls-1" d="M92.56,43.76c.39.54.79,1.06,1.18,1.59q5-22.72,10.7-45.35H56.68Q74.91,22.47,92.07,45.93C92.23,45.21,92.4,44.49,92.56,43.76Z"/></g></g></svg>