<svg xmlns="http://www.w3.org/2000/svg" viewBox="0 0 616.44 835.63"><defs><style>.cls-1{fill:red;}</style></defs><title>Asset 3</title><g id="Layer_2" data-name="Layer 2"><g id="Publicdomainvectors.org"><polygon class="cls-1" points="43.3 0 86.6 0 64.95 37.5 43.3 75 21.65 37.5 0 0 43.3 0"/><polygon class="cls-1" points="175.76 0 219.06 0 197.41 37.5 175.76 75 154.11 37.5 132.46 0 175.76 0"/><polygon class="cls-1" points="308.22 0 351.52 0 329.87 37.5 308.22 75 286.57 37.5 264.92 0 308.22 0"/><polygon class="cls-1" points="440.68 0 483.98 0 462.33 37.5 440.68 75 419.03 37.5 397.38 0 440.68 0"/><polygon class="cls-1" points="573.14 0 616.44 0 594.79 37.5 573.14 75 551.49 37.5 529.84 0 573.14 0"/><polygon class="cls-1" points="43.3 108.66 86.6 108.66 64.95 146.16 43.3 183.66 21.65 146.16 0 108.66 43.3 108.66"/><polygon class="cls-1" points="175.76 108.66 219.06 108.66 197.41 146.16 175.76 183.66 154.11 146.16 132.46 108.66 175.76 108.66"/><polygon class="cls-1" points="308.22 108.66 351.52 108.66 329.87 146.16 308.22 183.66 286.57 146.16 264.92 108.66 308.22 108.66"/><polygon class="cls-1" points="440.68 108.66 483.98 108.66 462.33 146.16 440.68 183.66 419.03 146.16 397.38 108.66 440.68 108.66"/><polygon class="cls-1" points="573.14 108.66 616.44 108.66 594.79 146.16 573.14 183.66 551.49 146.16 529.84 108.66 573.14 108.66"/><polygon class="cls-1" points="43.3 217.32 86.6 217.32 64.95 254.82 43.3 292.32 21.65 254.82 0 217.32 43.3 217.32"/><polygon class="cls-1" points="175.76 217.32 219.06 217.32 197.41 254.82 175.76 292.32 154.11 254.82 132.46 217.32 175.76 217.32"/><polygon class="cls-1" points="308.22 217.32 351.52 217.32 329.87 254.82 308.22 292.32 286.57 254.82 264.92 217.32 308.22 217.32"/><polygon class="cls-1" points="440.68 217.32 483.98 217.32 462.33 254.82 440.68 292.32 419.03 254.82 397.38 217.32 440.68 217.32"/><polygon class="cls-1" points="573.14 217.32 616.44 217.32 594.79 254.82 573.14 292.32 551.49 254.82 529.84 217.32 573.14 217.32"/><polygon class="cls-1" points="43.3 325.98 86.6 325.98 64.95 363.48 43.3 400.98 21.65 363.48 0 325.98 43.3 325.98"/><polygon class="cls-1" points="175.76 325.98 219.06 325.98 197.41 363.48 175.76 400.98 154.11 363.48 132.46 325.98 175.76 325.98"/><polygon class="cls-1" points="308.22 325.98 351.52 325.98 329.87 363.48 308.22 400.98 286.57 363.48 264.92 325.98 308.22 325.98"/><polygon class="cls-1" points="440.68 325.98 483.98 325.98 462.33 363.48 440.68 400.98 419.03 363.48 397.38 325.98 440.68 325.98"/><polygon class="cls-1" points="573.14 325.98 616.44 325.98 594.79 363.48 573.14 400.98 551.49 363.48 529.84 325.98 573.14 325.98"/><polygon class="cls-1" points="43.3 434.64 86.6 434.64 64.95 472.14 43.3 509.64 21.65 472.14 0 434.64 43.3 434.64"/><polygon class="cls-1" points="175.76 434.64 219.06 434.64 197.41 472.14 175.76 509.64 154.11 472.14 132.46 434.64 175.76 434.64"/><polygon class="cls-1" points="308.22 434.64 351.52 434.64 329.87 472.14 308.22 509.64 286.57 472.14 264.92 434.64 308.22 434.64"/><polygon class="cls-1" points="440.68 434.64 483.98 434.64 462.33 472.14 440.68 509.64 419.03 472.14 397.38 434.64 440.68 434.64"/><polygon class="cls-1" points="573.14 434.64 616.44 434.64 594.79 472.14 573.14 509.64 551.49 472.14 529.84 434.64 573.14 434.64"/><polygon class="cls-1" points="43.3 543.3 86.6 543.3 64.95 580.8 43.3 618.3 21.65 580.8 0 543.3 43.3 543.3"/><polygon class="cls-1" points="175.76 543.3 219.06 543.3 197.41 580.8 175.76 618.3 154.11 580.8 132.46 543.3 175.76 543.3"/><polygon class="cls-1" points="308.22 543.3 351.52 543.3 329.87 580.8 308.22 618.3 286.57 580.8 264.92 543.3 308.22 543.3"/><polygon class="cls-1" points="440.68 543.3 483.98 543.3 462.33 580.8 440.68 618.3 419.03 580.8 397.38 543.3 440.68 543.3"/><polygon class="cls-1" points="573.14 543.3 616.44 543.3 594.79 580.8 573.14 618.3 551.49 580.8 529.84 543.3 573.14 543.3"/><polygon class="cls-1" points="43.3 651.97 86.6 651.97 64.95 689.47 43.3 726.97 21.65 689.47 0 651.97 43.3 651.97"/><polygon class="cls-1" points="175.76 651.97 219.06 651.97 197.41 689.47 175.76 726.97 154.11 689.47 132.46 651.97 175.76 651.97"/><polygon class="cls-1" points="308.22 651.97 351.52 651.97 329.87 689.47 308.22 726.97 286.57 689.47 264.92 651.97 308.22 651.97"/><polygon class="cls-1" points="440.68 651.97 483.98 651.97 462.33 689.47 440.68 726.97 419.03 689.47 397.38 651.97 440.68 651.97"/><polygon class="cls-1" points="573.14 651.97 616.44 651.97 594.79 689.47 573.14 726.97 551.49 689.47 529.84 651.97 573.14 651.97"/><polygon class="cls-1" points="43.3 760.63 86.6 760.63 64.95 798.13 43.3 835.63 21.65 798.13 0 760.63 43.3 760.63"/><polygon class="cls-1" points="175.76 760.63 219.06 760.63 197.41 798.13 175.76 835.63 154.11 798.13 132.46 760.63 175.76 760.63"/><polygon class="cls-1" points="308.22 760.63 351.52 760.63 329.87 798.13 308.22 835.63 286.57 798.13 264.92 760.63 308.22 760.63"/><polygon class="cls-1" points="440.68 760.63 483.98 760.63 462.33 798.13 440.68 835.63 419.03 798.13 397.38 760.63 440.68 760.63"/><polygon class="cls-1" points="573.14 760.63 616.44 760.63 594.79 798.13 573.14 835.63 551.49 798.13 529.84 760.63 573.14 760.63"/></g></g></svg>