<svg xmlns="http://www.w3.org/2000/svg" viewBox="0 0 1195.98 1350.85"><defs><style>.cls-1{fill:green;stroke:green;stroke-miterlimit:10;stroke-width:18px;}</style></defs><title>Asset 1</title><g id="Layer_2" data-name="Layer 2"><g id="Layer_1-2" data-name="Layer 1"><g id="Layer_1-2-2" data-name="Layer 1-2"><path class="cls-1" d="M506,13.59c9.7,17.39,21.7,29.67,36.2,37s31.49,9.59,51.19,7c33.14-4.38,64.3,11.31,81.33,40.93l.1.14c9.68,17.34,21.65,29.56,36.09,36.83s31.48,9.61,51.14,7c33.15-4.38,64.32,11.32,81.29,40.91l.11.14c9.76,17.36,21.73,29.58,36.14,36.83s31.5,9.6,51.19,7c33.15-4.37,64.31,11.32,81.34,40.94a3,3,0,0,0,.86,1c9.65,17,21.51,29.07,35.79,36.25,14.49,7.3,31.49,9.59,51.19,7,33.15-4.38,64.31,11.32,81.33,40.93a3,3,0,0,0,4.09,1.14l.07,0a3.09,3.09,0,0,0,1.13-4.19c-18.26-31.8-51.74-48.64-87.36-44-36.65,4.83-63.24-8.56-81.28-40.91a3.19,3.19,0,0,0-.91-1c-18.42-31.24-51.62-47.82-87-43.16-36.65,4.83-63.24-8.55-81.28-40.9l-.14-.18c-18.31-31.69-51.72-48.5-87.3-43.82-36.64,4.83-63.24-8.56-81.29-40.91a1,1,0,0,0-.13-.18c-18.3-31.68-51.72-48.49-87.29-43.81C556,56.35,529.36,43,511.33,10.57a3,3,0,0,0-4.07-1.2l-.09,0A3.09,3.09,0,0,0,506,13.59Z"/><path class="cls-1" d="M1167.5,388.22c-18.27-31.8-51.74-48.63-87.36-44-36.65,4.83-63.25-8.55-81.28-40.91a3,3,0,0,0-.91-1C979.59,271,946.37,254.5,911,259.16c-36.66,4.84-63.26-8.55-81.29-40.91l-.13-.19c-18.27-31.71-51.72-48.49-87.28-43.8-36.66,4.84-63.25-8.54-81.29-40.9l-.13-.19c-18.28-31.71-51.72-48.5-87.29-43.8C537,94.2,510.36,80.82,492.33,48.46a3,3,0,0,0-4.07-1.2l-.09.05A3.08,3.08,0,0,0,487,51.49c9.63,17.37,21.63,29.67,36.13,37s31.49,9.59,51.19,7c33.14-4.38,64.3,11.32,81.33,40.93l.1.14c9.69,17.3,21.65,29.54,36.1,36.82s31.48,9.61,51.14,7c33.15-4.37,64.31,11.33,81.29,40.91l.11.14c9.69,17.3,21.64,29.54,36.09,36.82s31.49,9.59,51.2,7C944.82,260.8,976,276.5,993,306.11a2.89,2.89,0,0,0,.87.94c9.67,17.09,21.52,29.13,35.8,36.32,14.5,7.3,31.49,9.59,51.2,7,33.15-4.37,64.3,11.33,81.33,40.93a3,3,0,0,0,4.09,1.14l.07,0A3.08,3.08,0,0,0,1167.5,388.22Z"/><path class="cls-1" d="M1148.41,426.14c-18.26-31.79-51.74-48.63-87.35-43.95-36.65,4.82-63.25-8.55-81.29-40.91a3.21,3.21,0,0,0-.91-1c-18.37-31.34-51.58-47.88-86.94-43.21-36.65,4.83-63.25-8.55-81.29-40.91l-.13-.18c-18.28-31.7-51.72-48.49-87.29-43.8-36.64,4.83-63.24-8.54-81.29-40.91l-.13-.17c-18.28-31.71-51.72-48.5-87.28-43.81-36.65,4.84-63.25-8.54-81.29-40.9a3,3,0,0,0-4.07-1.2l-.09,0a3.34,3.34,0,0,0-1.26,4.34c9.69,17.33,21.69,29.6,36.19,36.9s31.49,9.59,51.19,7c33.14-4.38,64.3,11.31,81.33,40.92l.1.14c9.68,17.34,21.65,29.57,36.09,36.84s31.49,9.59,51.19,7c33.15-4.38,64.32,11.32,81.29,40.9l.1.15C815,276.79,827,289,841.38,296.26s31.5,9.6,51.19,7c33.15-4.37,64.31,11.32,81.34,40.93a2.9,2.9,0,0,0,.86.95c9.65,17,21.51,29.07,35.79,36.26,14.49,7.29,31.49,9.59,51.19,7,33.15-4.38,64.31,11.31,81.33,40.93a3,3,0,0,0,5.41-.29A3.07,3.07,0,0,0,1148.41,426.14Z"/><path class="cls-1" d="M1129.29,464.15c-18.27-31.8-51.74-48.64-87.36-44-36.65,4.84-63.25-8.54-81.28-40.9a3,3,0,0,0-.91-1c-18.36-31.32-51.58-47.86-86.93-43.2-36.66,4.83-63.26-8.55-81.29-40.91l-.13-.19c-18.27-31.71-51.72-48.49-87.28-43.8-36.66,4.84-63.25-8.54-81.29-40.91l-.13-.18c-18.28-31.71-51.72-48.5-87.29-43.81-36.65,4.84-63.25-8.54-81.28-40.9a3,3,0,0,0-4.07-1.2l-.09,0a3.07,3.07,0,0,0-1.17,4.17c9.7,17.39,21.69,29.68,36.19,37s31.49,9.59,51.19,7c33.15-4.38,64.3,11.32,81.33,40.93l.1.13c9.69,17.31,21.65,29.55,36.1,36.82s31.49,9.59,51.2,7c33.14-4.38,64.3,11.33,81.28,40.91l.11.14c9.69,17.3,21.64,29.54,36.1,36.82s31.49,9.58,51.19,7c33.14-4.37,64.31,11.33,81.34,40.94a3,3,0,0,0,.87.94c9.62,17,21.47,29,35.75,36.23,14.5,7.29,31.49,9.58,51.2,7,33.15-4.38,64.3,11.32,81.33,40.93a3,3,0,0,0,4.09,1.14l.07,0A3.08,3.08,0,0,0,1129.29,464.15Z"/><path class="cls-1" d="M1110.2,502.07c-18.26-31.79-51.74-48.63-87.35-44-36.65,4.83-63.25-8.54-81.29-40.9a2.91,2.91,0,0,0-.91-1c-18.36-31.31-51.58-47.85-86.93-43.2-36.65,4.83-63.25-8.54-81.28-40.9l-.14-.18c-18.28-31.7-51.72-48.5-87.28-43.8-36.65,4.83-63.24-8.54-81.29-40.91l-.13-.18c-18.29-31.7-51.73-48.49-87.29-43.8-36.64,4.83-63.24-8.54-81.29-40.91a3,3,0,0,0-4.07-1.2l-.08.05a3.34,3.34,0,0,0-1.26,4.35c9.67,17.31,21.67,29.58,36.17,36.88s31.49,9.59,51.19,7c33.14-4.37,64.31,11.32,81.33,40.93l.1.14c9.68,17.34,21.65,29.57,36.09,36.84s31.49,9.59,51.19,7c33.15-4.37,64.32,11.32,81.29,40.91l.1.14c9.72,17.36,21.69,29.59,36.1,36.84s31.5,9.59,51.19,7c33.15-4.38,64.31,11.32,81.34,40.93a2.9,2.9,0,0,0,.86.95c9.65,17,21.51,29.07,35.79,36.26,14.49,7.29,31.49,9.59,51.19,7,33.15-4.38,64.31,11.31,81.33,40.93a3,3,0,0,0,5.41-.29A3.07,3.07,0,0,0,1110.2,502.07Z"/><path class="cls-1" d="M1091.08,540.08c-18.27-31.8-51.74-48.64-87.36-44-36.65,4.84-63.25-8.54-81.28-40.9a3,3,0,0,0-.91-1C903.17,422.89,870,406.36,834.6,411c-36.66,4.84-63.26-8.54-81.29-40.9l-.13-.19c-18.27-31.71-51.72-48.5-87.28-43.8-36.66,4.84-63.25-8.55-81.29-40.91l-.13-.19c-18.27-31.71-51.72-48.49-87.28-43.8-36.66,4.84-63.25-8.54-81.29-40.91a3,3,0,0,0-4.07-1.2l-.09,0a3.09,3.09,0,0,0-1.17,4.18c9.7,17.39,21.69,29.68,36.19,37s31.49,9.59,51.19,7c33.15-4.38,64.31,11.32,81.33,40.92l.1.14c9.69,17.3,21.65,29.55,36.11,36.82s31.49,9.59,51.19,7C699.83,327.8,731,343.5,748,373.09l.1.14c9.69,17.3,21.64,29.54,36.1,36.81s31.49,9.59,51.19,7c33.14-4.38,64.31,11.33,81.34,40.93a2.93,2.93,0,0,0,.87,1c9.62,17,21.47,29,35.75,36.22,14.5,7.3,31.49,9.59,51.2,7,33.15-4.38,64.3,11.32,81.33,40.92a3,3,0,0,0,4.09,1.15l.07-.05A3.08,3.08,0,0,0,1091.08,540.08Z"/><path class="cls-1" d="M1072,578c-18.26-31.79-51.74-48.63-87.35-44-36.65,4.83-63.25-8.54-81.29-40.91a3,3,0,0,0-.91-1c-18.36-31.31-51.58-47.86-86.93-43.2-36.65,4.83-63.25-8.54-81.28-40.9l-.14-.18c-18.28-31.7-51.72-48.5-87.28-43.81-36.65,4.84-63.24-8.53-81.29-40.9l-.13-.18c-18.28-31.7-51.72-48.5-87.29-43.8-36.64,4.83-63.24-8.54-81.29-40.91a3,3,0,0,0-4.07-1.2l-.08.05a3.34,3.34,0,0,0-1.26,4.35c9.67,17.3,21.67,29.58,36.17,36.87s31.49,9.59,51.19,7c33.14-4.38,64.31,11.32,81.33,40.93l.1.14c9.68,17.34,21.65,29.57,36.09,36.84s31.49,9.58,51.19,7c33.15-4.38,64.32,11.32,81.29,40.91l.11.14c9.71,17.36,21.68,29.59,36.09,36.84s31.5,9.59,51.19,7c33.15-4.38,64.31,11.32,81.34,40.93a3,3,0,0,0,.86.95c9.66,17,21.51,29.07,35.79,36.26,14.49,7.29,31.49,9.59,51.19,7,33.15-4.37,64.31,11.32,81.33,40.93a3,3,0,0,0,4.07,1.2,3,3,0,0,0,1.34-1.49A3.05,3.05,0,0,0,1072,578Z"/><path class="cls-1" d="M1052.87,616c-18.27-31.81-51.74-48.64-87.36-44-36.65,4.84-63.25-8.54-81.28-40.91a2.79,2.79,0,0,0-.91-1c-18.36-31.33-51.58-47.87-86.93-43.21-36.66,4.84-63.26-8.55-81.29-40.9l-.12-.19c-18.28-31.71-51.73-48.5-87.29-43.8-36.66,4.83-63.25-8.55-81.29-40.91l-.13-.19C528,329.24,494.55,312.46,459,317.15c-36.66,4.84-63.25-8.55-81.29-40.91a3,3,0,0,0-4.07-1.2l-.09,0a3.09,3.09,0,0,0-1.17,4.18c9.7,17.39,21.69,29.68,36.19,37s31.49,9.58,51.19,7c33.15-4.37,64.31,11.33,81.34,40.93l.09.14c9.69,17.3,21.65,29.55,36.11,36.82s31.49,9.59,51.19,7c33.14-4.38,64.3,11.32,81.29,40.9l.1.15c9.69,17.3,21.64,29.54,36.1,36.81s31.49,9.59,51.19,7c33.14-4.38,64.31,11.33,81.34,40.93a2.91,2.91,0,0,0,.87.94c9.62,17,21.47,29,35.75,36.23,14.5,7.3,31.49,9.59,51.2,7,33.15-4.37,64.3,11.33,81.33,40.93a3,3,0,0,0,4.09,1.14l.08,0A3.09,3.09,0,0,0,1052.87,616Z"/><path class="cls-1" d="M1033.79,653.93c-18.27-31.8-51.75-48.63-87.36-44-36.65,4.83-63.25-8.54-81.28-40.91a3.19,3.19,0,0,0-.91-1c-18.37-31.31-51.59-47.86-86.93-43.2C740.65,529.7,714.06,516.33,696,484l-.14-.18c-18.28-31.7-51.72-48.49-87.28-43.8-36.65,4.84-63.24-8.54-81.29-40.9l-.13-.18c-18.28-31.7-51.72-48.5-87.29-43.81-36.64,4.84-63.24-8.53-81.29-40.9a3,3,0,0,0-4.07-1.2l-.08.05a3.34,3.34,0,0,0-1.26,4.35c9.67,17.3,21.67,29.58,36.17,36.87s31.49,9.59,51.19,7c33.15-4.38,64.31,11.31,81.33,40.93l.1.14c9.68,17.34,21.65,29.56,36.09,36.83s31.49,9.59,51.19,7c33.15-4.38,64.32,11.32,81.29,40.91l.11.14c9.71,17.36,21.68,29.59,36.09,36.84s31.5,9.59,51.19,7c33.15-4.37,64.31,11.32,81.34,40.94a3.13,3.13,0,0,0,.86.95c9.66,17,21.51,29.07,35.8,36.26,14.48,7.29,31.49,9.59,51.18,7,33.15-4.37,64.31,11.32,81.34,40.93a3,3,0,0,0,4.06,1.2,3,3,0,0,0,1.34-1.49A3.08,3.08,0,0,0,1033.79,653.93Z"/><path class="cls-1" d="M1014.66,691.94c-18.26-31.81-51.74-48.64-87.35-44-36.66,4.84-63.25-8.55-81.29-40.91a2.79,2.79,0,0,0-.91-1c-18.36-31.33-51.58-47.87-86.93-43.21-36.65,4.84-63.26-8.55-81.28-40.91l-.13-.18c-18.28-31.71-51.72-48.5-87.29-43.81-36.66,4.84-63.25-8.54-81.29-40.9l-.13-.19c-18.27-31.71-51.72-48.5-87.28-43.8-36.66,4.83-63.25-8.55-81.29-40.91a3,3,0,0,0-4.07-1.2l-.09,0a3.08,3.08,0,0,0-1.17,4.18c9.7,17.38,21.69,29.68,36.19,37s31.49,9.59,51.19,7c33.15-4.38,64.31,11.32,81.34,40.93l.09.14c9.69,17.3,21.65,29.54,36.11,36.82s31.49,9.59,51.19,7c33.14-4.38,64.3,11.32,81.29,40.9l.1.15c9.69,17.3,21.64,29.54,36.1,36.81s31.49,9.59,51.19,7c33.15-4.38,64.31,11.33,81.34,40.93a3.12,3.12,0,0,0,.87.94c9.62,17,21.47,29,35.75,36.23,14.5,7.29,31.49,9.59,51.2,7,33.15-4.38,64.31,11.33,81.33,40.93a3,3,0,0,0,4.09,1.14l.08,0A3.09,3.09,0,0,0,1014.66,691.94Z"/><path class="cls-1" d="M995.58,729.86c-18.27-31.8-51.75-48.63-87.36-44-36.65,4.83-63.25-8.55-81.28-40.91a3.19,3.19,0,0,0-.91-1c-18.37-31.31-51.59-47.86-86.93-43.2-36.66,4.83-63.25-8.55-81.29-40.91l-.14-.18c-18.28-31.7-51.72-48.49-87.28-43.8-36.65,4.83-63.24-8.54-81.29-40.91l-.13-.18c-18.28-31.7-51.72-48.49-87.29-43.8-36.64,4.84-63.24-8.54-81.29-40.9a3,3,0,0,0-4.07-1.2l-.08.05a3.33,3.33,0,0,0-1.26,4.34c9.67,17.31,21.67,29.58,36.17,36.88s31.49,9.59,51.19,7c33.15-4.38,64.31,11.31,81.33,40.93l.1.14c9.68,17.34,21.65,29.56,36.09,36.83s31.49,9.59,51.19,7c33.15-4.38,64.32,11.32,81.29,40.9l.11.15c9.71,17.36,21.68,29.58,36.09,36.83s31.5,9.6,51.19,7c33.15-4.37,64.31,11.32,81.34,40.93a3.16,3.16,0,0,0,.86,1c9.66,17,21.51,29.07,35.8,36.25,14.48,7.3,31.49,9.59,51.18,7,33.15-4.38,64.31,11.32,81.34,40.93a3,3,0,0,0,5.4-.29A3.08,3.08,0,0,0,995.58,729.86Z"/><path class="cls-1" d="M976.45,767.86c-18.26-31.8-51.74-48.63-87.35-44-36.66,4.83-63.25-8.55-81.29-40.91a2.91,2.91,0,0,0-.91-1c-18.36-31.32-51.58-47.86-86.93-43.2-36.65,4.84-63.26-8.55-81.28-40.91l-.13-.19c-18.28-31.71-51.72-48.49-87.29-43.8C514.61,558.74,488,545.36,470,513l-.13-.18c-18.27-31.71-51.72-48.5-87.28-43.81-36.66,4.84-63.25-8.54-81.29-40.9a3,3,0,0,0-4.07-1.2l-.09.05a3.08,3.08,0,0,0-1.17,4.18c9.7,17.38,21.69,29.68,36.19,37s31.49,9.59,51.19,7c33.15-4.38,64.31,11.32,81.34,40.93l.09.14c9.69,17.3,21.65,29.54,36.11,36.82s31.49,9.58,51.19,7c33.15-4.37,64.3,11.33,81.29,40.91l.1.14c9.69,17.3,21.64,29.54,36.1,36.82s31.49,9.59,51.19,7c33.15-4.37,64.31,11.33,81.34,40.94a3.12,3.12,0,0,0,.87.94c9.62,17,21.47,29,35.75,36.23,14.5,7.29,31.49,9.59,51.2,7,33.15-4.38,64.31,11.32,81.34,40.93a3,3,0,0,0,4.08,1.14l.08,0A3.1,3.1,0,0,0,976.45,767.86Z"/><path class="cls-1" d="M957.37,805.78C939.1,774,905.62,757.15,870,761.83c-36.65,4.82-63.25-8.55-81.28-40.91a3.34,3.34,0,0,0-.91-1c-18.37-31.3-51.59-47.85-86.93-43.19-36.66,4.83-63.25-8.55-81.29-40.91a.52.52,0,0,1-.13-.18c-18.29-31.7-51.73-48.49-87.29-43.8-36.64,4.83-63.24-8.54-81.29-40.91-.05,0-.09-.11-.13-.18-18.28-31.7-51.72-48.49-87.29-43.8-36.64,4.83-63.24-8.54-81.29-40.91a3,3,0,0,0-4.06-1.2l-.09.05a3.34,3.34,0,0,0-1.26,4.35c9.67,17.31,21.68,29.58,36.17,36.88s31.49,9.59,51.19,7c33.15-4.38,64.31,11.31,81.33,40.92l.1.14c9.68,17.34,21.65,29.57,36.1,36.84s31.49,9.59,51.18,7c33.15-4.38,64.32,11.32,81.29,40.9l.11.15c9.71,17.36,21.68,29.58,36.09,36.83s31.5,9.6,51.19,7c33.15-4.37,64.32,11.32,81.34,40.93a2.93,2.93,0,0,0,.87.95c9.65,17,21.5,29.07,35.79,36.26,14.49,7.29,31.49,9.59,51.18,7C903.85,763.66,935,779.35,952,809a3,3,0,0,0,5.4-.29A3.1,3.1,0,0,0,957.37,805.78Z"/><path class="cls-1" d="M938.24,843.79c-18.26-31.8-51.74-48.64-87.35-44-36.66,4.84-63.25-8.54-81.29-40.9a2.91,2.91,0,0,0-.91-1c-18.36-31.32-51.58-47.86-86.93-43.2-36.65,4.83-63.25-8.55-81.28-40.91l-.13-.19c-18.28-31.71-51.72-48.49-87.29-43.8-36.66,4.84-63.25-8.54-81.29-40.91l-.13-.19c-18.27-31.71-51.72-48.49-87.28-43.8-36.66,4.84-63.25-8.54-81.29-40.9a3,3,0,0,0-4.07-1.2l-.09.05a3.07,3.07,0,0,0-1.17,4.17c9.7,17.39,21.69,29.68,36.19,37s31.49,9.59,51.2,7c33.14-4.38,64.3,11.32,81.33,40.93l.1.13c9.68,17.31,21.64,29.55,36.1,36.82s31.49,9.59,51.19,7c33.15-4.38,64.3,11.33,81.29,40.91l.1.14c9.69,17.3,21.65,29.54,36.1,36.81s31.49,9.59,51.19,7c33.15-4.37,64.31,11.33,81.34,40.94a3.12,3.12,0,0,0,.87.94c9.62,17,21.47,29,35.75,36.22,14.5,7.3,31.49,9.59,51.2,7,33.15-4.38,64.31,11.32,81.34,40.93a3,3,0,0,0,4.08,1.14l.08,0A3.09,3.09,0,0,0,938.24,843.79Z"/><path class="cls-1" d="M919.16,881.71c-18.27-31.79-51.75-48.63-87.36-44-36.65,4.83-63.25-8.54-81.28-40.9a3.12,3.12,0,0,0-.91-1C731.24,764.54,698,748,662.68,752.65c-36.66,4.83-63.25-8.54-81.29-40.9a.52.52,0,0,1-.13-.18c-18.28-31.7-51.72-48.5-87.29-43.8-36.64,4.83-63.24-8.54-81.29-40.91a.52.52,0,0,1-.13-.18c-18.28-31.7-51.72-48.49-87.29-43.8C288.62,587.71,262,574.34,244,542a3,3,0,0,0-4.07-1.2l-.09.05a3.34,3.34,0,0,0-1.26,4.35c9.67,17.3,21.68,29.58,36.17,36.88s31.49,9.59,51.19,7c33.15-4.37,64.31,11.32,81.33,40.93l.1.14C417,647.45,429,659.68,443.45,667s31.49,9.59,51.18,7c33.15-4.37,64.32,11.32,81.29,40.91l.11.14c9.71,17.36,21.68,29.59,36.09,36.84s31.5,9.59,51.19,7c33.15-4.38,64.32,11.32,81.34,40.93a2.93,2.93,0,0,0,.87,1c9.65,17,21.5,29.07,35.79,36.26,14.49,7.29,31.49,9.59,51.19,7,33.14-4.38,64.3,11.31,81.33,40.93a3,3,0,0,0,5.4-.29A3.1,3.1,0,0,0,919.16,881.71Z"/><path class="cls-1" d="M900,919.72c-18.26-31.8-51.74-48.64-87.35-44-36.66,4.84-63.25-8.54-81.29-40.9a2.82,2.82,0,0,0-.91-1c-18.36-31.33-51.58-47.86-86.93-43.21-36.65,4.84-63.25-8.54-81.28-40.9l-.13-.19c-18.28-31.71-51.72-48.5-87.29-43.8-36.66,4.84-63.25-8.55-81.29-40.91l-.12-.19c-18.28-31.71-51.73-48.49-87.29-43.8-36.66,4.84-63.25-8.54-81.29-40.91a3,3,0,0,0-4.07-1.2l-.08,0a3.08,3.08,0,0,0-1.18,4.18c9.7,17.39,21.7,29.68,36.19,37s31.49,9.59,51.2,7c33.14-4.37,64.3,11.33,81.33,40.93l.1.14c9.68,17.3,21.65,29.55,36.1,36.82s31.49,9.59,51.19,7c33.15-4.38,64.3,11.32,81.29,40.91l.11.14c9.68,17.3,21.64,29.54,36.09,36.81s31.49,9.59,51.19,7c33.15-4.38,64.31,11.33,81.34,40.93a3,3,0,0,0,.87.95c9.62,17,21.47,29,35.75,36.22,14.5,7.3,31.49,9.59,51.2,7,33.15-4.38,64.31,11.32,81.34,40.92a3,3,0,0,0,4.08,1.15l.08-.05A3.09,3.09,0,0,0,900,919.72Z"/><path class="cls-1" d="M881,957.64c-18.27-31.8-51.74-48.63-87.35-44-36.66,4.83-63.25-8.54-81.29-40.91a3.19,3.19,0,0,0-.91-1c-18.37-31.31-51.59-47.86-86.93-43.2-36.65,4.83-63.25-8.54-81.29-40.9,0,0-.09-.12-.13-.18-18.28-31.7-51.72-48.5-87.29-43.81-36.64,4.84-63.24-8.54-81.29-40.9a.52.52,0,0,1-.13-.18c-18.28-31.7-51.72-48.5-87.29-43.8-36.64,4.83-63.24-8.54-81.28-40.91a3,3,0,0,0-4.07-1.2l-.09,0a3.34,3.34,0,0,0-1.26,4.35C210,638.4,222,650.68,236.52,658s31.5,9.59,51.19,7C320.86,660.59,352,676.29,369,705.9l.1.14c9.68,17.34,21.65,29.57,36.1,36.84s31.49,9.58,51.18,7c33.15-4.38,64.32,11.32,81.29,40.91l.11.14c9.71,17.36,21.68,29.59,36.09,36.84s31.5,9.59,51.19,7c33.15-4.38,64.32,11.31,81.34,40.93a3,3,0,0,0,.87.95c9.65,17,21.5,29.07,35.79,36.26,14.49,7.29,31.49,9.59,51.19,7,33.14-4.37,64.3,11.32,81.33,40.93a3,3,0,0,0,4.07,1.2,3,3,0,0,0,1.34-1.49A3.08,3.08,0,0,0,881,957.64Z"/><path class="cls-1" d="M861.82,995.65c-18.26-31.81-51.74-48.64-87.35-44-36.66,4.84-63.25-8.54-81.29-40.91a2.79,2.79,0,0,0-.91-1c-18.36-31.33-51.58-47.87-86.92-43.21-36.66,4.84-63.26-8.55-81.29-40.9l-.13-.19c-18.28-31.71-51.72-48.5-87.29-43.8-36.65,4.83-63.25-8.55-81.29-40.91l-.12-.19c-18.28-31.71-51.72-48.49-87.29-43.8-36.66,4.84-63.25-8.55-81.29-40.91a3,3,0,0,0-4.07-1.2l-.08.05a3.08,3.08,0,0,0-1.18,4.18c9.7,17.39,21.7,29.68,36.19,37s31.49,9.59,51.2,7C301.85,698.49,333,714.2,350,743.8l.1.14c9.68,17.3,21.65,29.55,36.1,36.82s31.49,9.59,51.19,7c33.15-4.38,64.3,11.32,81.29,40.9l.11.15c9.68,17.3,21.64,29.54,36.09,36.81s31.49,9.59,51.19,7c33.15-4.38,64.31,11.33,81.34,40.93a3,3,0,0,0,.87.94c9.62,17,21.47,29,35.75,36.23,14.5,7.3,31.49,9.59,51.21,7,33.14-4.37,64.3,11.33,81.33,40.93a3,3,0,0,0,4.08,1.14l.08,0A3.07,3.07,0,0,0,861.82,995.65Z"/><path class="cls-1" d="M842.74,1033.57c-18.27-31.8-51.74-48.63-87.35-44-36.66,4.83-63.25-8.55-81.29-40.91a3.19,3.19,0,0,0-.91-1c-18.37-31.31-51.58-47.86-86.93-43.2C549.61,909.34,523,896,505,863.6c-.05,0-.09-.11-.13-.18-18.28-31.7-51.72-48.49-87.29-43.8-36.64,4.84-63.24-8.54-81.29-40.9-.05,0-.09-.12-.13-.18-18.28-31.7-51.72-48.5-87.29-43.81-36.64,4.84-63.24-8.54-81.28-40.9a3,3,0,0,0-4.07-1.2l-.09,0a3.34,3.34,0,0,0-1.26,4.35c9.67,17.3,21.68,29.58,36.18,36.87s31.49,9.59,51.18,7c33.15-4.38,64.31,11.31,81.34,40.93l.09.14c9.68,17.34,21.65,29.56,36.1,36.83s31.49,9.59,51.19,7c33.14-4.38,64.31,11.32,81.28,40.91l.11.14c9.71,17.36,21.68,29.59,36.09,36.84s31.5,9.59,51.19,7c33.16-4.37,64.32,11.32,81.34,40.94a3,3,0,0,0,.87,1c9.65,17,21.51,29.07,35.79,36.26,14.49,7.29,31.49,9.58,51.19,7,33.14-4.38,64.3,11.32,81.33,40.93a3,3,0,0,0,4.07,1.2,3.31,3.31,0,0,0,1.26-4.38Z"/><path class="cls-1" d="M823.61,1071.58c-18.26-31.81-51.74-48.64-87.35-44-36.66,4.84-63.25-8.55-81.29-40.91a2.79,2.79,0,0,0-.91-1c-18.36-31.33-51.58-47.87-86.92-43.21-36.66,4.84-63.26-8.55-81.29-40.91l-.13-.18c-18.28-31.71-51.72-48.5-87.29-43.81-36.65,4.84-63.25-8.54-81.28-40.9l-.13-.19c-18.28-31.71-51.72-48.5-87.29-43.8-36.66,4.83-63.25-8.55-81.29-40.91a3,3,0,0,0-4.07-1.2l-.08,0a3.08,3.08,0,0,0-1.18,4.18c9.7,17.38,21.7,29.68,36.19,37s31.5,9.59,51.2,7c33.14-4.38,64.3,11.32,81.33,40.93l.1.14c9.68,17.3,21.65,29.54,36.1,36.82s31.49,9.59,51.19,7c33.15-4.37,64.31,11.33,81.29,40.91l.11.14c9.68,17.31,21.64,29.55,36.09,36.82s31.49,9.59,51.19,7c33.15-4.38,64.31,11.33,81.34,40.93a3.12,3.12,0,0,0,.87.94c9.62,17,21.47,29,35.75,36.23,14.5,7.29,31.5,9.59,51.21,7,33.14-4.38,64.3,11.33,81.33,40.93a3,3,0,0,0,4.08,1.14l.08,0A3.07,3.07,0,0,0,823.61,1071.58Z"/><path class="cls-1" d="M804.53,1109.5c-18.27-31.8-51.74-48.63-87.35-44-36.66,4.83-63.25-8.55-81.29-40.91a3.19,3.19,0,0,0-.91-1c-18.37-31.31-51.58-47.86-86.93-43.2-36.65,4.83-63.25-8.55-81.29-40.91a.52.52,0,0,1-.13-.18c-18.28-31.7-51.72-48.49-87.29-43.8-36.64,4.83-63.24-8.54-81.29-40.91-.05,0-.08-.11-.13-.18-18.28-31.7-51.72-48.49-87.29-43.8-36.64,4.84-63.24-8.54-81.28-40.9a3,3,0,0,0-4.07-1.2l-.09,0a3.35,3.35,0,0,0-1.26,4.35c9.68,17.31,21.68,29.58,36.18,36.88s31.49,9.59,51.18,7c33.15-4.38,64.31,11.31,81.34,40.93l.09.13c9.68,17.35,21.65,29.57,36.1,36.84s31.49,9.59,51.19,7c33.14-4.38,64.31,11.32,81.28,40.9l.11.15c9.71,17.36,21.69,29.58,36.09,36.83s31.5,9.6,51.19,7c33.16-4.37,64.32,11.32,81.34,40.93a2.93,2.93,0,0,0,.87,1c9.65,17,21.51,29.08,35.79,36.26,14.49,7.29,31.49,9.59,51.19,7,33.14-4.38,64.3,11.32,81.33,40.93a3,3,0,0,0,4.07,1.2,3.09,3.09,0,0,0,1.34-1.49A3.05,3.05,0,0,0,804.53,1109.5Z"/><path class="cls-1" d="M785.4,1147.5c-18.26-31.8-51.74-48.63-87.35-44-36.66,4.83-63.25-8.55-81.29-40.91a2.91,2.91,0,0,0-.91-1c-18.36-31.32-51.58-47.86-86.92-43.2-36.66,4.84-63.26-8.55-81.29-40.91l-.13-.19c-18.28-31.71-51.72-48.49-87.29-43.8-36.65,4.84-63.25-8.54-81.28-40.91l-.13-.18c-18.28-31.71-51.72-48.5-87.29-43.81-36.66,4.84-63.25-8.54-81.29-40.9a3,3,0,0,0-4.07-1.2l-.08.05a3.08,3.08,0,0,0-1.18,4.18c9.7,17.38,21.7,29.67,36.2,37s31.49,9.59,51.19,7c33.14-4.38,64.3,11.32,81.33,40.93l.1.14c9.68,17.3,21.65,29.54,36.1,36.81s31.49,9.59,51.19,7c33.15-4.37,64.31,11.33,81.29,40.91l.11.14c9.68,17.3,21.64,29.54,36.09,36.82s31.49,9.59,51.19,7c33.15-4.37,64.32,11.33,81.34,40.94a3.12,3.12,0,0,0,.87.94c9.63,17,21.47,29,35.76,36.23,14.49,7.29,31.49,9.59,51.2,7,33.14-4.38,64.3,11.32,81.33,40.93a3,3,0,0,0,4.09,1.14l.07,0A3.08,3.08,0,0,0,785.4,1147.5Z"/><path class="cls-1" d="M766.32,1185.42c-18.27-31.79-51.74-48.63-87.35-44-36.66,4.83-63.25-8.54-81.29-40.9a3.23,3.23,0,0,0-.91-1c-18.37-31.3-51.58-47.85-86.93-43.19-36.65,4.82-63.25-8.55-81.29-40.91a.52.52,0,0,1-.13-.18c-18.28-31.7-51.72-48.5-87.29-43.8-36.64,4.83-63.24-8.54-81.28-40.91-.06,0-.09-.11-.14-.18-18.28-31.7-51.72-48.49-87.28-43.8-36.65,4.83-63.25-8.54-81.29-40.91a3,3,0,0,0-4.07-1.2l-.09,0a3.35,3.35,0,0,0-1.26,4.35c9.68,17.31,21.68,29.58,36.18,36.88s31.49,9.59,51.18,7c33.15-4.37,64.31,11.32,81.34,40.93l.09.14c9.68,17.34,21.65,29.57,36.1,36.84s31.49,9.59,51.19,7c33.14-4.38,64.31,11.32,81.28,40.9l.11.15c9.71,17.35,21.69,29.58,36.09,36.83s31.5,9.6,51.19,7c33.16-4.37,64.32,11.32,81.34,40.93a3,3,0,0,0,.87,1c9.65,17,21.51,29.07,35.79,36.26,14.49,7.29,31.49,9.59,51.19,7C712.8,1143.3,744,1159,761,1188.61a3,3,0,0,0,4.07,1.2,3,3,0,0,0,1.34-1.49A3.07,3.07,0,0,0,766.32,1185.42Z"/><path class="cls-1" d="M747.19,1223.43c-18.26-31.8-51.73-48.64-87.35-44-36.66,4.84-63.25-8.54-81.29-40.9a2.91,2.91,0,0,0-.91-1c-18.35-31.32-51.58-47.86-86.92-43.2-36.66,4.83-63.26-8.55-81.29-40.91l-.13-.19c-18.28-31.71-51.72-48.49-87.29-43.8-36.65,4.84-63.25-8.55-81.28-40.91l-.13-.19c-18.28-31.71-51.72-48.49-87.29-43.8C116.65,929.41,90.06,916,72,883.67a3,3,0,0,0-4.07-1.2l-.08,0a3.09,3.09,0,0,0-1.18,4.18c9.7,17.39,21.7,29.68,36.2,37s31.49,9.59,51.19,7c33.14-4.38,64.3,11.32,81.33,40.93l.1.13c9.69,17.31,21.65,29.55,36.1,36.82s31.49,9.59,51.19,7c33.15-4.38,64.31,11.32,81.29,40.91l.11.14c9.69,17.3,21.64,29.54,36.09,36.81s31.49,9.59,51.19,7c33.15-4.38,64.32,11.33,81.35,40.94a2.89,2.89,0,0,0,.87.94c9.62,17,21.46,29,35.75,36.22,14.49,7.3,31.49,9.59,51.2,7,33.14-4.38,64.3,11.32,81.33,40.93a3,3,0,0,0,4.09,1.14l.07,0A3.07,3.07,0,0,0,747.19,1223.43Z"/><path class="cls-1" d="M728.11,1261.35c-18.27-31.79-51.74-48.63-87.35-44-36.66,4.84-63.25-8.54-81.29-40.9a3.12,3.12,0,0,0-.91-1c-18.37-31.31-51.58-47.85-86.93-43.2-36.66,4.84-63.25-8.54-81.29-40.9l-.13-.18c-18.28-31.7-51.72-48.5-87.29-43.8-36.64,4.84-63.24-8.54-81.28-40.91l-.14-.18c-18.28-31.7-51.72-48.49-87.28-43.8C97.57,967.36,71,954,52.93,921.61a3,3,0,0,0-4.07-1.2l-.09.05a3.35,3.35,0,0,0-1.26,4.35c9.68,17.3,21.68,29.58,36.18,36.88s31.49,9.58,51.19,7c33.14-4.37,64.3,11.32,81.33,40.93l.1.14c9.69,17.31,21.65,29.55,36.1,36.82s31.49,9.59,51.19,7c33.14-4.38,64.31,11.32,81.28,40.9l.11.15c9.69,17.3,21.65,29.54,36.09,36.81s31.5,9.59,51.19,7c33.16-4.38,64.32,11.32,81.34,40.93a3,3,0,0,0,.87,1c9.63,17,21.48,29,35.76,36.22,14.49,7.29,31.49,9.59,51.19,7,33.15-4.38,64.31,11.32,81.33,40.93a3,3,0,0,0,5.41-.29A3.06,3.06,0,0,0,728.11,1261.35Z"/><path class="cls-1" d="M709,1299.36c-18.26-31.8-51.73-48.64-87.35-44-36.66,4.84-63.25-8.54-81.29-40.91a2.88,2.88,0,0,0-.91-1c-18.35-31.33-51.58-47.86-86.92-43.21-36.66,4.84-63.26-8.55-81.29-40.9l-.13-.19c-18.27-31.71-51.72-48.5-87.28-43.8-36.66,4.83-63.25-8.55-81.29-40.91l-.13-.19c-18.28-31.71-51.72-48.49-87.29-43.8-36.65,4.84-63.25-8.54-81.29-40.91a3,3,0,0,0-4.06-1.2l-.09.05a3.08,3.08,0,0,0-1.17,4.18c9.7,17.39,21.69,29.68,36.19,37s31.49,9.59,51.19,7c33.14-4.37,64.3,11.33,81.33,40.93l.1.14c9.69,17.3,21.65,29.55,36.1,36.82s31.49,9.59,51.19,7c33.15-4.38,64.31,11.32,81.29,40.9l.11.15c9.69,17.3,21.64,29.54,36.09,36.81s31.49,9.59,51.2,7c33.14-4.38,64.31,11.33,81.34,40.93a2.93,2.93,0,0,0,.87,1c9.62,17,21.46,29,35.75,36.22,14.49,7.3,31.49,9.59,51.2,7,33.14-4.37,64.3,11.33,81.33,40.93a3,3,0,0,0,4.09,1.14l.07,0A3.07,3.07,0,0,0,709,1299.36Z"/><path class="cls-1" d="M689.9,1337.28c-18.27-31.8-51.74-48.63-87.35-44-36.66,4.84-63.25-8.54-81.29-40.91a3.19,3.19,0,0,0-.91-1c-18.37-31.31-51.58-47.86-86.93-43.2-36.66,4.84-63.25-8.54-81.29-40.9l-.13-.18c-18.28-31.71-51.72-48.5-87.29-43.81-36.64,4.85-63.24-8.54-81.28-40.9l-.14-.18c-18.28-31.7-51.72-48.5-87.28-43.8-36.65,4.84-63.24-8.54-81.29-40.91a3,3,0,0,0-4.07-1.2l-.09,0a3.08,3.08,0,0,0-1.17,4.18c9.69,17.39,21.69,29.69,36.19,37s31.49,9.59,51.19,7c33.14-4.37,64.31,11.31,81.33,40.93l.1.14c9.68,17.31,21.64,29.55,36.1,36.82s31.49,9.58,51.19,7c33.14-4.37,64.31,11.32,81.29,40.91l.1.14c9.69,17.31,21.65,29.56,36.1,36.82s31.5,9.59,51.19,7c33.15-4.36,64.31,11.32,81.34,40.94a2.9,2.9,0,0,0,.86,1c9.63,17,21.48,29,35.77,36.22,14.49,7.29,31.49,9.59,51.18,7,33.15-4.36,64.31,11.32,81.34,40.94a3,3,0,0,0,4.08,1.14l.07,0A3.09,3.09,0,0,0,689.9,1337.28Z"/></g></g></g></svg>