<?xml version="1.0" encoding="utf-8"?>
<!-- Generator: Adobe Illustrator 24.0.3, SVG Export Plug-In . SVG Version: 6.00 Build 0)  -->
<svg version="1.1" id="Layer_1" xmlns="http://www.w3.org/2000/svg" xmlns:xlink="http://www.w3.org/1999/xlink" x="0px" y="0px"
	 viewBox="0 0 120 120" style="enable-background:new 0 0 120 120;" xml:space="preserve">
<style type="text/css">
	.st0{fill:none;stroke:#000000;stroke-linecap:round;stroke-linejoin:round;stroke-miterlimit:10;}
	.st1{fill:#FF0000;}
</style>
<path id="theMotionPath_2_" class="st0" d="M32.8,14.6l-0.8-4.8c0,0-0.5-2.5-2-2.5c-1.4,0-3.9,7.1-3.7,14.1
	c0.1,5.8,2.4,10.1,5.4,10.1s5.5-11.1,5.3-22c0,0-1.9,10.7,0.5,15c0,0,1.3-5.6,2.4-5.6c1.1,0,0.6,3.1,0.6,3.1s-0.1,3.6,1.5,3.6
	c1.6,0,3.2-3.5,3.2-4.5S45,19,44.5,19s-1.7,6.1,1,6.1s3.4-5.3,3.3-6.1c-0.1-0.8-0.9,0-1,1c-0.1,1-0.4,4.3,1,4.3s1.2-3.8,3-4.9
	c0,0,0.1,0.1,0.7,0s-2.2,3.5,0.2,4.4c2.4,0.8,2.9-3.8,2.9-3.8s0,2.5,0.4,2.7s1.6-3.5,1.9-3.7s1,3.4,0.9,3.8s2-2.5,1.7-3.1
	c0,0,0.7,0.4,0.7,2.6s0.7,11,1.5,12.1c0.8,1.1-3.2-12.7-0.7-18.4c0,0,3.4,0.8,0.1,8.8c0,0,0.4-0.5,1.8-1.4c1.4-1,3.7-1.8,3.7-3.7
	c0,0,1.5,2.3-1.1,4.6c-2.6,2.3,3.8,0.3,3.9-0.8c0,0,0.8-3,3.1-3s4.6,9,0,9c-4.6,0-8.4,7.5-8.4,8.4c0,0.9-2.2,5.9-11.5,0
	s-11.6-12.4-16-6.4c0,0-1.3,1.5-1.9,5.5c-0.3,2.3-0.8,4.9-0.7,7.6c0.1,5.8,2.4,10.1,5.4,10.1s5.5-11.1,5.3-22c0,0-1.9,10.7,0.5,15
	c0,0,1.3-5.6,2.4-5.6c1.1,0,0.6,3.1,0.6,3.1s-0.1,3.6,1.5,3.6c1.6,0,3.2-3.5,3.2-4.5c0-1-0.1-2.1-0.6-2.1s-1.7,6.1,1,6.1
	s3.4-5.3,3.3-6.1s-0.9,0-1,1c-0.1,1-0.4,4.3,1,4.3s1.2-3.8,3-4.9c0,0,0.1,0.1,0.7,0s-2.2,3.5,0.2,4.4s2.9-3.8,2.9-3.8s0,2.5,0.4,2.7
	s1.6-3.5,1.9-3.7s1,3.4,0.9,3.8c-0.1,0.4,2-2.5,1.7-3.1c0,0,0.7,0.4,0.7,2.6s0.7,11,1.5,12.1c0.8,1.1-3.2-12.7-0.7-18.4
	c0,0,3.4,0.8,0.1,8.8c0,0,0.4-0.5,1.8-1.4c1.4-1,3.7-1.8,3.7-3.7c0,0,1.5,2.3-1.1,4.6s4.2-1.8,3.9-0.8c-1.3,4.4,2.2,4.9,2.2,4.9
	c1.4,0,5.2,7.2,3.7,14.1c-1.4,6.9-2.4,10.1-5.4,10.1c-3,0-5.5-11.1-5.3-22c0,0,1.9,10.7-0.5,15c0,0-1.3-5.6-2.4-5.6
	c-1.1,0-0.6,3.1-0.6,3.1s0.1,3.6-1.5,3.6s-3.2-3.5-3.2-4.5s0.1-2.1,0.6-2.1c0.5,0,1.7,6.1-1,6.1s-3.4-5.3-3.3-6.1c0.1-0.8,0.9,0,1,1
	c0.1,1,0.4,4.3-1,4.3s-1.2-3.8-3-4.9c0,0-0.1,0.1-0.7,0s2.2,3.5-0.2,4.4c-2.4,0.8-2.9-3.8-2.9-3.8s0,2.5-0.4,2.7s-1.6-3.5-1.9-3.7
	s-1,3.4-0.9,3.8c0.1,0.4-2-2.5-1.7-3.1c0,0-0.7,0.4-0.7,2.6c0,2.3-0.7,11-1.5,12.1s3.2-12.7,0.7-18.4c0,0-3.4,0.8-0.1,8.8
	c0,0-0.4-0.5-1.8-1.4c-1.4-1-3.7-1.8-3.7-3.7c0,0-1.5,2.3,1.1,4.6C47.4,71,41,69,40.8,68c0,0-0.7,1-2.1,1c-1.4,0-5.2,7.2-3.7,14.1
	c1.4,6.9,2.4,10.1,5.4,10.1s5.5-11.1,5.3-22c0,0-1.9,10.7,0.5,15c0,0,1.3-5.6,2.4-5.6c1.1,0,0.6,3.1,0.6,3.1s-0.1,3.6,1.5,3.6
	c1.6,0,3.2-3.5,3.2-4.5c0-1-0.1-2.1-0.6-2.1c-0.5,0-1.7,6.1,1,6.1s3.4-5.3,3.3-6.1s-0.9,0-1,1c-0.1,1-0.4,4.3,1,4.3s1.2-3.8,3-4.9
	c0,0,0.1,0.1,0.7,0s-2.2,3.5,0.2,4.4c2.4,0.8,2.9-3.8,2.9-3.8s0,2.5,0.4,2.7s1.6-3.5,1.9-3.7s1,3.4,0.9,3.8c-0.1,0.4,2-2.5,1.7-3.1
	c0,0,0.7,0.4,0.7,2.6c0,2.3,0.7,11,1.5,12.1c0.8,1.1-3.2-12.7-0.7-18.4c0,0,3.4,0.8,0.1,8.8c0,0,0.4-0.5,1.8-1.4
	c1.4-1,3.7-1.8,3.7-3.7c0,0,1.5,2.3-1.1,4.6c-2.6,2.3,3.8,0.3,3.9-0.8c0,0,3-7.2,4.2-2.5c1.3,4.7-7.8,35.5-25.6,26.9
	s-24.2-12.2-27.3-2c-3.1,10.2,0.5,0.4,4.1-1.5c3.5-1.9,8.8-2.4,8.8-0.5"/>
<circle id="dot" class="st1" cx="0" cy="0" r="5"/>
</svg>
