<?xml version="1.0" encoding="utf-8"?>
<!-- Generator: Adobe Illustrator 24.0.3, SVG Export Plug-In . SVG Version: 6.00 Build 0)  -->
<svg version="1.1" id="Layer_1" xmlns="http://www.w3.org/2000/svg" xmlns:xlink="http://www.w3.org/1999/xlink" x="0px" y="0px"
	 viewBox="0 0 120 120" style="enable-background:new 0 0 120 120;" xml:space="preserve">
<style type="text/css">
	.st0{fill:none;stroke:#FFFFFF;stroke-width:0.25;}
	.st1{fill:#FF0000;}
</style>
<path id="theMotionPath" class="st0" d="M5,55.9c0,0,2.2-0.4,3.1-2.2C9,52,9.4,51.6,9,51.2c-0.4-0.4-0.6-0.4-1,0.2
	c-0.3,0.6-0.5,1.5-0.5,1.8s-0.1,2.9-0.1,3.2s-0.1,2.9,0.1,3.5c0.3,0.5,0.3,5-0.1,5.5c-0.3,0.5-0.4,2.2-1.3-0.2
	c-0.9-2.4,0.4-4.6,0.9-4.9s1.4-0.8,2.6-0.6c1.2,0.2,5-0.9,5.4-3.5c0.4-2.5,0.5-4-0.2-4.1c-0.7-0.1-1,1.2-1.1,3.4S13,64,13.6,65.1
	c0.6,1.1,1.4,3,5.2,0.5c3.8-2.5,1.3-5.1,0.7-5.3s-3.8,0.5-2.2,4.8s5,0.1,5.5-1.5s0.8-3.5,0.8-3.5s-2,5.6,0.2,5.6s3.4-4.8,3.3-5.4
	c-0.1-0.6-1.6,4.3,0,5.2c1.6,0.8,0.8-0.2,1.7-0.8c0.9-0.6,2-1.3,1.9-4.5c0,0,3.2,4-1.6,5c0,0,2.1,0.1,3.4-0.6
	c1.2-0.7,2.6-0.8,3.2-1.7c0.7-0.8,1.9-2.6-0.4-3.2c-2.3-0.7-3.1,5.8-0.2,6.1c2.9,0.4,9,0.8,12.1-3.7c3.1-4.5,7.3-10.3,1.2-14.1
	S37.7,57,38.6,59.5s2.8,8.2,7.8,7.1c5-1.1,6.6-2.9,6.8-3.1s2.3-2.2,2.5-9.6s1.4-7.5,2.3-7.4c0.8,0.1,1.9,0.8,1.3,2.1
	c-0.5,1.3-1.2-0.7-1.7-1.1c-0.5-0.4-2-0.9-2.2,1.1s-0.4,5.4-0.4,5.4s0.1,2.3-1.3,1.5c-1.4-0.7-0.1-1.5,0.4-1.5
	c0.5,0,2.3-0.3,4.3,2.4c2,2.6,5.2,6.3,9.5-1.1s1-9.4,0.3-9.4s-1.9,1.1,0.7,5.1s5.4,11.2,6,13.1c0.6,1.9-1.3,0.8,0.2-2.2
	c1.5-3.1,7.2-13,7-15.4c-0.3-2.5-5.7,10.4-4.7,12.5s2.1-1.2,2.7-1.6c0.6-0.4,3.7-2.4,3,4.1s-5.6,1.8-4.2,0.1
	c1.3-1.7,1.6-1.9,2.3-1.6c0.7,0.2,2.2,3.7,2.5,2.7c0.3-1,1.4-5.3,2.7-5.2s1.7,2.4,0.9,4.4c-0.8,2,0.2-3.1,0.6-3.7
	c0.4-0.7,2.9-2.5,2.9,1c0.1,3.5-0.2,4.6,1.1,4s2.3,1,3.9-5.3c0,0,0.3-1.7,2.2-0.6c1.9,1.1-4.2-2.3-3.8,2.1c0.4,4.5,3.1,0.8,3.5,0.1
	c0.4-0.7,0.5-3.3,0.7-3.2c0.1,0.1,0.5,4.4,0.7,4.8s2.3,16.7-4.8,12.8c-7.1-3.9,6.6-13.4,8.1-14.2c1.5-0.8,3.7-2.3,2.8-3.5
	c-0.9-1.3-3.6,2.5-2,4.3c1.6,1.8,10.7,0.8,11.9-1.4"/>
<circle id="dot" class="st1" cx="0" cy="0" r="5"/>
</svg>
