<svg xmlns="http://www.w3.org/2000/svg" viewBox="0 0 815.46 1251.46"><defs><style>.cls-1{fill:#000000;stroke:#000000;stroke-miterlimit:10;stroke-width:36px;}</style></defs><title>Asset 5</title><g id="Layer_2" data-name="Layer 2"><g id="Layer_1-2" data-name="Layer 1"><line class="cls-1" x1="742.73" y1="1238.73" x2="12.73" y2="508.73"/><line class="cls-1" x1="12.73" y1="581.73" x2="669.73" y2="1238.73"/><line class="cls-1" x1="12.73" y1="654.73" x2="596.73" y2="1238.73"/><line class="cls-1" x1="669.73" y1="1238.73" x2="12.73" y2="581.73"/><line class="cls-1" x1="802.73" y1="1225.73" x2="12.73" y2="435.73"/><line class="cls-1" x1="12.73" y1="508.73" x2="742.73" y2="1238.73"/><line class="cls-1" x1="802.73" y1="1079.73" x2="12.73" y2="289.73"/><line class="cls-1" x1="12.73" y1="362.73" x2="802.73" y2="1152.73"/><line class="cls-1" x1="802.73" y1="1006.73" x2="12.73" y2="216.73"/><line class="cls-1" x1="12.73" y1="289.73" x2="802.73" y2="1079.73"/><line class="cls-1" x1="12.73" y1="727.73" x2="523.73" y2="1238.73"/><line class="cls-1" x1="596.73" y1="1238.73" x2="12.73" y2="654.73"/><line class="cls-1" x1="802.73" y1="1152.73" x2="12.73" y2="362.73"/><line class="cls-1" x1="12.73" y1="435.73" x2="802.73" y2="1225.73"/><line class="cls-1" x1="12.73" y1="1165.73" x2="85.73" y2="1238.73"/><line class="cls-1" x1="158.73" y1="1238.73" x2="12.73" y2="1092.73"/><line class="cls-1" x1="85.73" y1="1238.73" x2="12.73" y2="1165.73"/><line class="cls-1" x1="12.73" y1="1092.73" x2="158.73" y2="1238.73"/><line class="cls-1" x1="231.73" y1="1238.73" x2="12.73" y2="1019.73"/><line class="cls-1" x1="12.73" y1="1019.73" x2="231.73" y2="1238.73"/><line class="cls-1" x1="304.73" y1="1238.73" x2="12.73" y2="946.73"/><line class="cls-1" x1="12.73" y1="800.73" x2="450.73" y2="1238.73"/><line class="cls-1" x1="523.73" y1="1238.73" x2="12.73" y2="727.73"/><line class="cls-1" x1="12.73" y1="873.73" x2="377.73" y2="1238.73"/><line class="cls-1" x1="450.73" y1="1238.73" x2="12.73" y2="800.73"/><line class="cls-1" x1="12.73" y1="946.73" x2="304.73" y2="1238.73"/><line class="cls-1" x1="377.73" y1="1238.73" x2="12.73" y2="873.73"/><line class="cls-1" x1="802.73" y1="714.73" x2="100.73" y2="12.73"/><line class="cls-1" x1="27.73" y1="12.73" x2="802.73" y2="787.73"/><line class="cls-1" x1="802.73" y1="203.73" x2="611.73" y2="12.73"/><line class="cls-1" x1="538.73" y1="12.73" x2="802.73" y2="276.73"/><line class="cls-1" x1="802.73" y1="130.73" x2="684.73" y2="12.73"/><line class="cls-1" x1="611.73" y1="12.73" x2="802.73" y2="203.73"/><line class="cls-1" x1="802.73" y1="276.73" x2="538.73" y2="12.73"/><line class="cls-1" x1="465.73" y1="12.73" x2="802.73" y2="349.73"/><line class="cls-1" x1="802.73" y1="933.73" x2="12.73" y2="143.73"/><line class="cls-1" x1="12.73" y1="216.73" x2="802.73" y2="1006.73"/><line class="cls-1" x1="802.73" y1="57.73" x2="757.73" y2="12.73"/><line class="cls-1" x1="684.73" y1="12.73" x2="802.73" y2="130.73"/><line class="cls-1" x1="757.73" y1="12.73" x2="802.73" y2="57.73"/><line class="cls-1" x1="802.73" y1="349.73" x2="465.73" y2="12.73"/><line class="cls-1" x1="392.73" y1="12.73" x2="802.73" y2="422.73"/><line class="cls-1" x1="802.73" y1="787.73" x2="27.73" y2="12.73"/><line class="cls-1" x1="12.73" y1="70.73" x2="802.73" y2="860.73"/><line class="cls-1" x1="802.73" y1="641.73" x2="173.73" y2="12.73"/><line class="cls-1" x1="100.73" y1="12.73" x2="802.73" y2="714.73"/><line class="cls-1" x1="802.73" y1="860.73" x2="12.73" y2="70.73"/><line class="cls-1" x1="12.73" y1="143.73" x2="802.73" y2="933.73"/><line class="cls-1" x1="802.73" y1="495.73" x2="319.73" y2="12.73"/><line class="cls-1" x1="246.73" y1="12.73" x2="802.73" y2="568.73"/><line class="cls-1" x1="802.73" y1="422.73" x2="392.73" y2="12.73"/><line class="cls-1" x1="319.73" y1="12.73" x2="802.73" y2="495.73"/><line class="cls-1" x1="802.73" y1="568.73" x2="246.73" y2="12.73"/><line class="cls-1" x1="173.73" y1="12.73" x2="802.73" y2="641.73"/></g></g></svg>