<svg xmlns="http://www.w3.org/2000/svg" xmlns:xlink="http://www.w3.org/1999/xlink" viewBox="0 0 815.46 1251.46"><defs><style>.cls-1{fill:url(#linear-gradient);}.cls-2{fill:url(#linear-gradient-2);}.cls-3{fill:url(#linear-gradient-3);}.cls-4{fill:url(#linear-gradient-4);}.cls-5{fill:url(#linear-gradient-5);}.cls-6{fill:url(#linear-gradient-6);}.cls-7{fill:url(#linear-gradient-7);}.cls-8{fill:url(#linear-gradient-8);}.cls-9{fill:url(#linear-gradient-9);}.cls-10{fill:url(#linear-gradient-10);}.cls-11{fill:url(#linear-gradient-11);}.cls-12{fill:url(#linear-gradient-12);}.cls-13{fill:url(#linear-gradient-13);}.cls-14{fill:url(#linear-gradient-14);}.cls-15{fill:url(#linear-gradient-15);}.cls-16{fill:url(#linear-gradient-16);}.cls-17{fill:url(#linear-gradient-17);}.cls-18{fill:url(#linear-gradient-18);}.cls-19{fill:url(#linear-gradient-19);}.cls-20{fill:url(#linear-gradient-20);}.cls-21{fill:url(#linear-gradient-21);}.cls-22{fill:url(#linear-gradient-22);}.cls-23{fill:url(#linear-gradient-23);}.cls-24{fill:url(#linear-gradient-24);}.cls-25{fill:url(#linear-gradient-25);}.cls-26{fill:url(#linear-gradient-26);}.cls-27{fill:url(#linear-gradient-27);}</style><linearGradient id="linear-gradient" x1="133" y1="910.23" x2="815.46" y2="910.23" gradientTransform="translate(782.53 -68.73) rotate(45)" gradientUnits="userSpaceOnUse"><stop offset="0" stop-color="#ff7c56"/><stop offset="0.21" stop-color="#b775b9"/><stop offset="0.43" stop-color="#ff0"/><stop offset="0.66" stop-color="blue"/><stop offset="0.78" stop-color="#f86059"/><stop offset="1" stop-color="#ff5"/></linearGradient><linearGradient id="linear-gradient-2" x1="60" y1="873.73" x2="815.46" y2="873.73" gradientTransform="translate(746.03 -53.61) rotate(45)" xlink:href="#linear-gradient"/><linearGradient id="linear-gradient-3" x1="0" y1="684.73" x2="815.46" y2="684.73" gradientTransform="translate(603.6 -87.75) rotate(45)" xlink:href="#linear-gradient"/><linearGradient id="linear-gradient-4" x1="206" y1="946.73" x2="815.46" y2="946.73" gradientTransform="translate(819.03 -83.85) rotate(45)" xlink:href="#linear-gradient"/><linearGradient id="linear-gradient-5" x1="0" y1="757.73" x2="815.46" y2="757.73" gradientTransform="translate(655.22 -66.37) rotate(45)" xlink:href="#linear-gradient"/><linearGradient id="linear-gradient-6" x1="0" y1="830.73" x2="815.46" y2="830.73" gradientTransform="translate(706.83 -44.99) rotate(45)" xlink:href="#linear-gradient"/><linearGradient id="linear-gradient-7" x1="717" y1="1202.23" x2="815.46" y2="1202.23" gradientTransform="translate(1074.55 -189.67) rotate(45)" xlink:href="#linear-gradient"/><linearGradient id="linear-gradient-8" x1="644" y1="1165.73" x2="815.46" y2="1165.73" gradientTransform="translate(1038.05 -174.56) rotate(45)" xlink:href="#linear-gradient"/><linearGradient id="linear-gradient-9" x1="571" y1="1129.23" x2="815.46" y2="1129.23" gradientTransform="translate(1001.55 -159.44) rotate(45)" xlink:href="#linear-gradient"/><linearGradient id="linear-gradient-10" x1="279" y1="983.23" x2="815.46" y2="983.23" gradientTransform="translate(855.53 -98.97) rotate(45)" xlink:href="#linear-gradient"/><linearGradient id="linear-gradient-11" x1="352" y1="1019.73" x2="815.46" y2="1019.73" gradientTransform="translate(892.03 -114.09) rotate(45)" xlink:href="#linear-gradient"/><linearGradient id="linear-gradient-12" x1="498" y1="1092.73" x2="815.46" y2="1092.73" gradientTransform="translate(965.05 -144.32) rotate(45)" xlink:href="#linear-gradient"/><linearGradient id="linear-gradient-13" x1="425" y1="1056.23" x2="815.46" y2="1056.23" gradientTransform="translate(928.55 -129.2) rotate(45)" xlink:href="#linear-gradient"/><linearGradient id="linear-gradient-14" x1="0" y1="108.23" x2="216.46" y2="108.23" gradientTransform="translate(108.22 -44.83) rotate(45)" xlink:href="#linear-gradient"/><linearGradient id="linear-gradient-15" x1="0" y1="144.73" x2="289.46" y2="144.73" gradientTransform="translate(144.72 -59.95) rotate(45)" xlink:href="#linear-gradient"/><linearGradient id="linear-gradient-16" x1="0" y1="611.73" x2="815.46" y2="611.73" gradientTransform="translate(551.98 -109.14) rotate(45)" xlink:href="#linear-gradient"/><linearGradient id="linear-gradient-17" x1="0" y1="71.73" x2="143.46" y2="71.73" gradientTransform="translate(71.73 -29.71) rotate(45)" xlink:href="#linear-gradient"/><linearGradient id="linear-gradient-18" x1="0" y1="35.23" x2="70.46" y2="35.23" gradientTransform="translate(35.23 -14.59) rotate(45)" xlink:href="#linear-gradient"/><linearGradient id="linear-gradient-19" x1="0" y1="181.23" x2="362.46" y2="181.23" gradientTransform="translate(181.22 -75.07) rotate(45)" xlink:href="#linear-gradient"/><linearGradient id="linear-gradient-20" x1="0" y1="400.23" x2="800.46" y2="400.23" gradientTransform="translate(400.23 -165.78) rotate(45)" xlink:href="#linear-gradient"/><linearGradient id="linear-gradient-21" x1="0" y1="363.73" x2="727.46" y2="363.73" gradientTransform="translate(363.73 -150.66) rotate(45)" xlink:href="#linear-gradient"/><linearGradient id="linear-gradient-22" x1="0" y1="465.73" x2="815.46" y2="465.73" gradientTransform="translate(448.74 -151.9) rotate(45)" xlink:href="#linear-gradient"/><linearGradient id="linear-gradient-23" x1="0" y1="538.73" x2="815.46" y2="538.73" gradientTransform="translate(500.36 -130.52) rotate(45)" xlink:href="#linear-gradient"/><linearGradient id="linear-gradient-24" x1="0" y1="217.73" x2="435.46" y2="217.73" gradientTransform="translate(217.73 -90.19) rotate(45)" xlink:href="#linear-gradient"/><linearGradient id="linear-gradient-25" x1="0" y1="254.23" x2="508.46" y2="254.23" gradientTransform="translate(254.23 -105.3) rotate(45)" xlink:href="#linear-gradient"/><linearGradient id="linear-gradient-26" x1="0" y1="290.73" x2="581.46" y2="290.73" gradientTransform="translate(290.73 -120.42) rotate(45)" xlink:href="#linear-gradient"/><linearGradient id="linear-gradient-27" x1="0" y1="327.23" x2="654.46" y2="327.23" gradientTransform="translate(327.23 -135.54) rotate(45)" xlink:href="#linear-gradient"/></defs><title>Asset 1</title><g id="Layer_2" data-name="Layer 2"><g id="Layer_1-2" data-name="Layer 1"><rect class="cls-1" x="9.66" y="892.23" width="929.14" height="36" transform="translate(-504.73 601.93) rotate(-45)"/><rect class="cls-2" x="-78.46" y="855.73" width="1032.38" height="36" transform="translate(-489.61 565.43) rotate(-45)"/><rect class="cls-3" x="-150.89" y="666.73" width="1117.23" height="36" transform="translate(-364.76 488.86) rotate(-45)"/><rect class="cls-4" x="97.78" y="928.73" width="825.9" height="36" transform="translate(-519.85 638.43) rotate(-45)"/><rect class="cls-5" x="-150.89" y="739.73" width="1117.23" height="36" transform="translate(-416.37 510.24) rotate(-45)"/><rect class="cls-6" x="-150.89" y="812.73" width="1117.23" height="36" transform="translate(-467.99 531.62) rotate(-45)"/><rect class="cls-7" x="714.61" y="1184.23" width="103.24" height="36" transform="translate(-625.69 893.96) rotate(-45)"/><rect class="cls-8" x="626.49" y="1147.73" width="206.48" height="36" transform="translate(-610.57 857.46) rotate(-45)"/><rect class="cls-9" x="538.37" y="1111.23" width="309.71" height="36" transform="translate(-595.45 820.95) rotate(-45)"/><rect class="cls-10" x="185.9" y="965.23" width="722.66" height="36" transform="translate(-534.97 674.93) rotate(-45)"/><rect class="cls-11" x="274.01" y="1001.73" width="619.43" height="36" transform="translate(-550.09 711.43) rotate(-45)"/><rect class="cls-12" x="450.25" y="1074.73" width="412.95" height="36" transform="translate(-580.33 784.45) rotate(-45)"/><rect class="cls-13" x="362.13" y="1038.23" width="516.19" height="36" transform="translate(-565.21 747.95) rotate(-45)"/><rect class="cls-14" x="-26.83" y="90.23" width="270.11" height="36" transform="translate(-44.83 108.22) rotate(-45)"/><rect class="cls-15" x="-41.95" y="126.73" width="373.35" height="36" transform="translate(-59.95 144.72) rotate(-45)"/><rect class="cls-16" x="-150.89" y="593.73" width="1117.23" height="36" transform="translate(-313.14 467.48) rotate(-45)"/><rect class="cls-17" x="-11.71" y="53.73" width="166.88" height="36" transform="translate(-29.71 71.73) rotate(-45)"/><rect class="cls-18" x="3.41" y="17.23" width="63.64" height="36" transform="translate(-14.59 35.23) rotate(-45)"/><rect class="cls-19" x="-57.07" y="163.23" width="476.59" height="36" transform="translate(-75.07 181.22) rotate(-45)"/><rect class="cls-20" x="-147.78" y="382.23" width="1096.02" height="36" transform="translate(-165.78 400.23) rotate(-45)"/><rect class="cls-21" x="-132.66" y="345.73" width="992.78" height="36" transform="translate(-150.66 363.73) rotate(-45)"/><rect class="cls-22" x="-150.89" y="447.73" width="1117.23" height="36" transform="translate(-209.9 424.72) rotate(-45)"/><rect class="cls-23" x="-150.89" y="520.73" width="1117.23" height="36" transform="translate(-261.52 446.1) rotate(-45)"/><rect class="cls-24" x="-72.19" y="199.73" width="579.83" height="36" transform="translate(-90.19 217.73) rotate(-45)"/><rect class="cls-25" x="-87.3" y="236.23" width="683.07" height="36" transform="translate(-105.3 254.23) rotate(-45)"/><rect class="cls-26" x="-102.42" y="272.73" width="786.3" height="36" transform="translate(-120.42 290.73) rotate(-45)"/><rect class="cls-27" x="-117.54" y="309.23" width="889.54" height="36" transform="translate(-135.54 327.23) rotate(-45)"/></g></g></svg>