<svg xmlns="http://www.w3.org/2000/svg" viewBox="0 0 788.71 1092.97"><defs><style>.cls-1,.cls-2{fill:orange;}.cls-2{stroke:#fff;stroke-miterlimit:10;}</style></defs><title>Asset 6</title><g id="Layer_2" data-name="Layer 2"><g id="Layer_1-2" data-name="Layer 1"><rect class="cls-1" x="9.7" y="64.41" width="46.86" height="46.86" transform="translate(71.82 2.3) rotate(45)"/><rect class="cls-1" x="140.85" y="64.41" width="46.86" height="46.86" transform="translate(110.23 -90.44) rotate(45)"/><rect class="cls-1" x="272" y="64.41" width="46.86" height="46.86" transform="translate(148.64 -183.17) rotate(45)"/><rect class="cls-1" x="403.15" y="64.41" width="46.86" height="46.86" transform="translate(187.05 -275.91) rotate(45)"/><rect class="cls-1" x="534.29" y="64.41" width="46.86" height="46.86" transform="translate(225.46 -368.64) rotate(45)"/><rect class="cls-1" x="665.44" y="64.41" width="46.86" height="46.86" transform="translate(263.88 -461.38) rotate(45)"/><rect class="cls-1" x="9.7" y="172.41" width="46.86" height="46.86" transform="translate(148.18 33.93) rotate(45)"/><rect class="cls-1" x="140.85" y="172.41" width="46.86" height="46.86" transform="translate(186.6 -58.8) rotate(45)"/><rect class="cls-1" x="272" y="172.41" width="46.86" height="46.86" transform="translate(225.01 -151.54) rotate(45)"/><rect class="cls-1" x="403.15" y="172.41" width="46.86" height="46.86" transform="translate(263.42 -244.27) rotate(45)"/><rect class="cls-1" x="534.29" y="172.41" width="46.86" height="46.86" transform="translate(301.83 -337.01) rotate(45)"/><rect class="cls-1" x="665.44" y="172.41" width="46.86" height="46.86" transform="translate(340.24 -429.74) rotate(45)"/><rect class="cls-1" x="9.7" y="280.41" width="46.86" height="46.86" transform="translate(224.55 65.56) rotate(45)"/><rect class="cls-1" x="140.85" y="280.41" width="46.86" height="46.86" transform="translate(262.96 -27.17) rotate(45)"/><rect class="cls-1" x="272" y="280.41" width="46.86" height="46.86" transform="translate(301.38 -119.91) rotate(45)"/><rect class="cls-1" x="403.15" y="280.41" width="46.86" height="46.86" transform="translate(339.79 -212.64) rotate(45)"/><rect class="cls-1" x="534.29" y="280.41" width="46.86" height="46.86" transform="translate(378.2 -305.38) rotate(45)"/><rect class="cls-1" x="665.44" y="280.41" width="46.86" height="46.86" transform="translate(416.61 -398.11) rotate(45)"/><rect class="cls-1" x="9.7" y="388.41" width="46.86" height="46.86" transform="translate(300.92 97.2) rotate(45)"/><rect class="cls-1" x="140.85" y="388.41" width="46.86" height="46.86" transform="translate(339.33 4.46) rotate(45)"/><rect class="cls-1" x="272" y="388.41" width="46.86" height="46.86" transform="translate(377.74 -88.27) rotate(45)"/><rect class="cls-1" x="403.15" y="388.41" width="46.86" height="46.86" transform="translate(416.15 -181.01) rotate(45)"/><rect class="cls-1" x="534.29" y="388.41" width="46.86" height="46.86" transform="translate(454.57 -273.74) rotate(45)"/><rect class="cls-1" x="665.44" y="388.41" width="46.86" height="46.86" transform="translate(492.98 -366.48) rotate(45)"/><rect class="cls-1" x="9.7" y="496.41" width="46.86" height="46.86" transform="translate(377.29 128.83) rotate(45)"/><rect class="cls-1" x="140.85" y="496.41" width="46.86" height="46.86" transform="translate(415.7 36.09) rotate(45)"/><rect class="cls-1" x="272" y="496.41" width="46.86" height="46.86" transform="translate(454.11 -56.64) rotate(45)"/><rect class="cls-1" x="403.15" y="496.41" width="46.86" height="46.86" transform="translate(492.52 -149.38) rotate(45)"/><rect class="cls-1" x="534.29" y="496.41" width="46.86" height="46.86" transform="translate(530.93 -242.11) rotate(45)"/><rect class="cls-1" x="665.44" y="496.41" width="46.86" height="46.86" transform="translate(569.35 -334.85) rotate(45)"/><rect class="cls-1" x="9.7" y="604.41" width="46.86" height="46.86" transform="translate(453.65 160.46) rotate(45)"/><rect class="cls-1" x="140.85" y="604.41" width="46.86" height="46.86" transform="translate(492.07 67.73) rotate(45)"/><rect class="cls-1" x="272" y="604.41" width="46.86" height="46.86" transform="translate(530.48 -25.01) rotate(45)"/><rect class="cls-1" x="403.15" y="604.41" width="46.86" height="46.86" transform="translate(568.89 -117.74) rotate(45)"/><rect class="cls-1" x="534.29" y="604.41" width="46.86" height="46.86" transform="translate(607.3 -210.48) rotate(45)"/><rect class="cls-1" x="665.44" y="604.41" width="46.86" height="46.86" transform="translate(645.71 -303.21) rotate(45)"/><rect class="cls-1" x="9.7" y="712.41" width="46.86" height="46.86" transform="translate(530.02 192.09) rotate(45)"/><rect class="cls-1" x="140.85" y="712.41" width="46.86" height="46.86" transform="translate(568.43 99.36) rotate(45)"/><rect class="cls-1" x="272" y="712.41" width="46.86" height="46.86" transform="translate(606.85 6.62) rotate(45)"/><rect class="cls-1" x="403.15" y="712.41" width="46.86" height="46.86" transform="translate(645.26 -86.11) rotate(45)"/><rect class="cls-1" x="534.29" y="712.41" width="46.86" height="46.86" transform="translate(683.67 -178.85) rotate(45)"/><rect class="cls-1" x="665.44" y="712.41" width="46.86" height="46.86" transform="translate(722.08 -271.58) rotate(45)"/><rect class="cls-1" x="9.7" y="820.41" width="46.86" height="46.86" transform="translate(606.39 223.73) rotate(45)"/><rect class="cls-1" x="140.85" y="820.41" width="46.86" height="46.86" transform="translate(644.8 130.99) rotate(45)"/><rect class="cls-1" x="272" y="820.41" width="46.86" height="46.86" transform="translate(683.21 38.26) rotate(45)"/><rect class="cls-1" x="403.15" y="820.41" width="46.86" height="46.86" transform="translate(721.63 -54.48) rotate(45)"/><rect class="cls-1" x="534.29" y="820.41" width="46.86" height="46.86" transform="translate(760.04 -147.21) rotate(45)"/><rect class="cls-1" x="665.44" y="820.41" width="46.86" height="46.86" transform="translate(798.45 -239.95) rotate(45)"/><rect class="cls-1" x="9.7" y="928.41" width="46.86" height="46.86" transform="translate(682.76 255.36) rotate(45)"/><rect class="cls-1" x="140.85" y="928.41" width="46.86" height="46.86" transform="translate(721.17 162.62) rotate(45)"/><rect class="cls-1" x="272" y="928.41" width="46.86" height="46.86" transform="translate(759.58 69.89) rotate(45)"/><rect class="cls-1" x="403.15" y="928.41" width="46.86" height="46.86" transform="translate(797.99 -22.85) rotate(45)"/><rect class="cls-1" x="534.29" y="928.41" width="46.86" height="46.86" transform="translate(836.4 -115.58) rotate(45)"/><rect class="cls-1" x="665.44" y="928.41" width="46.86" height="46.86" transform="translate(874.82 -208.32) rotate(45)"/><rect class="cls-1" x="9.7" y="1036.41" width="46.86" height="46.86" transform="translate(759.12 286.99) rotate(45)"/><rect class="cls-1" x="140.85" y="1036.41" width="46.86" height="46.86" transform="translate(797.54 194.26) rotate(45)"/><rect class="cls-1" x="272" y="1036.41" width="46.86" height="46.86" transform="translate(835.95 101.52) rotate(45)"/><rect class="cls-1" x="403.15" y="1036.41" width="46.86" height="46.86" transform="translate(874.36 8.79) rotate(45)"/><rect class="cls-1" x="534.29" y="1036.41" width="46.86" height="46.86" transform="translate(912.77 -83.95) rotate(45)"/><rect class="cls-1" x="665.44" y="1036.41" width="46.86" height="46.86" transform="translate(951.18 -176.68) rotate(45)"/><rect class="cls-2" x="75.7" y="10.41" width="46.86" height="46.86" transform="translate(52.96 -60.19) rotate(45)"/><rect class="cls-2" x="206.85" y="10.41" width="46.86" height="46.86" transform="translate(91.38 -152.92) rotate(45)"/><rect class="cls-2" x="338" y="10.41" width="46.86" height="46.86" transform="translate(129.79 -245.66) rotate(45)"/><rect class="cls-2" x="469.15" y="10.41" width="46.86" height="46.86" transform="translate(168.2 -338.39) rotate(45)"/><rect class="cls-2" x="600.29" y="10.41" width="46.86" height="46.86" transform="translate(206.61 -431.13) rotate(45)"/><rect class="cls-2" x="731.44" y="10.41" width="46.86" height="46.86" transform="translate(245.02 -523.86) rotate(45)"/><rect class="cls-2" x="75.7" y="118.41" width="46.86" height="46.86" transform="translate(129.33 -28.55) rotate(45)"/><rect class="cls-2" x="206.85" y="118.41" width="46.86" height="46.86" transform="translate(167.74 -121.29) rotate(45)"/><rect class="cls-2" x="338" y="118.41" width="46.86" height="46.86" transform="translate(206.15 -214.02) rotate(45)"/><rect class="cls-2" x="469.15" y="118.41" width="46.86" height="46.86" transform="translate(244.57 -306.76) rotate(45)"/><rect class="cls-2" x="600.29" y="118.41" width="46.86" height="46.86" transform="translate(282.98 -399.49) rotate(45)"/><rect class="cls-2" x="731.44" y="118.41" width="46.86" height="46.86" transform="translate(321.39 -492.23) rotate(45)"/><rect class="cls-2" x="75.7" y="226.41" width="46.86" height="46.86" transform="translate(205.7 3.08) rotate(45)"/><rect class="cls-2" x="206.85" y="226.41" width="46.86" height="46.86" transform="translate(244.11 -89.66) rotate(45)"/><rect class="cls-2" x="338" y="226.41" width="46.86" height="46.86" transform="translate(282.52 -182.39) rotate(45)"/><rect class="cls-2" x="469.15" y="226.41" width="46.86" height="46.86" transform="translate(320.93 -275.13) rotate(45)"/><rect class="cls-2" x="600.29" y="226.41" width="46.86" height="46.86" transform="translate(359.35 -367.86) rotate(45)"/><rect class="cls-2" x="731.44" y="226.41" width="46.86" height="46.86" transform="translate(397.76 -460.6) rotate(45)"/><rect class="cls-2" x="75.7" y="334.41" width="46.86" height="46.86" transform="translate(282.07 34.71) rotate(45)"/><rect class="cls-2" x="206.85" y="334.41" width="46.86" height="46.86" transform="translate(320.48 -58.02) rotate(45)"/><rect class="cls-2" x="338" y="334.41" width="46.86" height="46.86" transform="translate(358.89 -150.76) rotate(45)"/><rect class="cls-2" x="469.15" y="334.41" width="46.86" height="46.86" transform="translate(397.3 -243.49) rotate(45)"/><rect class="cls-2" x="600.29" y="334.41" width="46.86" height="46.86" transform="translate(435.71 -336.23) rotate(45)"/><rect class="cls-2" x="731.44" y="334.41" width="46.86" height="46.86" transform="translate(474.13 -428.96) rotate(45)"/><rect class="cls-2" x="75.7" y="442.41" width="46.86" height="46.86" transform="translate(358.43 66.34) rotate(45)"/><rect class="cls-2" x="206.85" y="442.41" width="46.86" height="46.86" transform="translate(396.85 -26.39) rotate(45)"/><rect class="cls-2" x="338" y="442.41" width="46.86" height="46.86" transform="translate(435.26 -119.13) rotate(45)"/><rect class="cls-2" x="469.15" y="442.41" width="46.86" height="46.86" transform="translate(473.67 -211.86) rotate(45)"/><rect class="cls-2" x="600.29" y="442.41" width="46.86" height="46.86" transform="translate(512.08 -304.6) rotate(45)"/><rect class="cls-2" x="731.44" y="442.41" width="46.86" height="46.86" transform="translate(550.49 -397.33) rotate(45)"/><rect class="cls-2" x="75.7" y="550.41" width="46.86" height="46.86" transform="translate(434.8 97.98) rotate(45)"/><rect class="cls-2" x="206.85" y="550.41" width="46.86" height="46.86" transform="translate(473.21 5.24) rotate(45)"/><rect class="cls-2" x="338" y="550.41" width="46.86" height="46.86" transform="translate(511.63 -87.49) rotate(45)"/><rect class="cls-2" x="469.15" y="550.41" width="46.86" height="46.86" transform="translate(550.04 -180.23) rotate(45)"/><rect class="cls-2" x="600.29" y="550.41" width="46.86" height="46.86" transform="translate(588.45 -272.96) rotate(45)"/><rect class="cls-2" x="731.44" y="550.41" width="46.86" height="46.86" transform="translate(626.86 -365.7) rotate(45)"/><rect class="cls-2" x="75.7" y="658.41" width="46.86" height="46.86" transform="translate(511.17 129.61) rotate(45)"/><rect class="cls-2" x="206.85" y="658.41" width="46.86" height="46.86" transform="translate(549.58 36.87) rotate(45)"/><rect class="cls-2" x="338" y="658.41" width="46.86" height="46.86" transform="translate(587.99 -55.86) rotate(45)"/><rect class="cls-2" x="469.15" y="658.41" width="46.86" height="46.86" transform="translate(626.4 -148.6) rotate(45)"/><rect class="cls-2" x="600.29" y="658.41" width="46.86" height="46.86" transform="translate(664.82 -241.33) rotate(45)"/><rect class="cls-2" x="731.44" y="658.41" width="46.86" height="46.86" transform="translate(703.23 -334.07) rotate(45)"/><rect class="cls-2" x="75.7" y="766.41" width="46.86" height="46.86" transform="translate(587.54 161.24) rotate(45)"/><rect class="cls-2" x="206.85" y="766.41" width="46.86" height="46.86" transform="translate(625.95 68.51) rotate(45)"/><rect class="cls-2" x="338" y="766.41" width="46.86" height="46.86" transform="translate(664.36 -24.23) rotate(45)"/><rect class="cls-2" x="469.15" y="766.41" width="46.86" height="46.86" transform="translate(702.77 -116.96) rotate(45)"/><rect class="cls-2" x="600.29" y="766.41" width="46.86" height="46.86" transform="translate(741.18 -209.7) rotate(45)"/><rect class="cls-2" x="731.44" y="766.41" width="46.86" height="46.86" transform="translate(779.6 -302.43) rotate(45)"/><rect class="cls-2" x="75.7" y="874.41" width="46.86" height="46.86" transform="translate(663.9 192.87) rotate(45)"/><rect class="cls-2" x="206.85" y="874.41" width="46.86" height="46.86" transform="translate(702.32 100.14) rotate(45)"/><rect class="cls-2" x="338" y="874.41" width="46.86" height="46.86" transform="translate(740.73 7.4) rotate(45)"/><rect class="cls-2" x="469.15" y="874.41" width="46.86" height="46.86" transform="translate(779.14 -85.33) rotate(45)"/><rect class="cls-2" x="600.29" y="874.41" width="46.86" height="46.86" transform="translate(817.55 -178.07) rotate(45)"/><rect class="cls-2" x="731.44" y="874.41" width="46.86" height="46.86" transform="translate(855.96 -270.8) rotate(45)"/><rect class="cls-2" x="75.7" y="982.41" width="46.86" height="46.86" transform="translate(740.27 224.51) rotate(45)"/><rect class="cls-2" x="206.85" y="982.41" width="46.86" height="46.86" transform="translate(778.68 131.77) rotate(45)"/><rect class="cls-2" x="338" y="982.41" width="46.86" height="46.86" transform="translate(817.1 39.04) rotate(45)"/><rect class="cls-2" x="469.15" y="982.41" width="46.86" height="46.86" transform="translate(855.51 -53.7) rotate(45)"/><rect class="cls-2" x="600.29" y="982.41" width="46.86" height="46.86" transform="translate(893.92 -146.43) rotate(45)"/><rect class="cls-2" x="731.44" y="982.41" width="46.86" height="46.86" transform="translate(932.33 -239.17) rotate(45)"/></g></g></svg>