<svg xmlns="http://www.w3.org/2000/svg" viewBox="0 0 743.71 1168.49"><defs><style>.cls-1{fill:yellow;}</style></defs><title>Asset 3</title><g id="Layer_2" data-name="Layer 2"><g id="Layer_1-2" data-name="Layer 1"><path class="cls-1" d="M590.19,448.94c49.42,31.81,134.08,31.38,150.41,53.72,16.33,21.92-35.24,66.62-70.48,114.75-35.24,47.7-53.72,99.28-91.11,122.48-37,23.21-92.4,18.91-144.83,1.72a325.41,325.41,0,0,1-143.54-94.12c-42.12-46.84-76.5-110-53.72-150.84,22.35-40.4,102.28-57.59,157.72-88.53C450.08,377.6,481,333.34,503.8,342.79,526.15,352.68,540.76,417.14,590.19,448.94Z"/><path class="cls-1" d="M677,59.34c15.72,27.86,18.1,56.91,31.44,90.34,13.53,33.43,37.8,71.23,30.64,97.1-7.36,25.86-46.36,39.79-84.57,51.53-38,11.74-75.21,21.49-108.64,12.94S482.81,275.63,465.5,243c-17.11-32.83-21.89-71.43-14.93-107.25A177.88,177.88,0,0,1,503.9,40.84C531.16,15.17,567.17-2.94,599.81,1,632.24,5.22,661.29,31.69,677,59.34Z"/><path class="cls-1" d="M396,194.72c21.73,44.7,18.22,97.06-5.38,135.14S323.4,391.54,276.83,393.4c-46.56,1.66-96.23-18.42-122.72-58.16s-30-99.13-5.18-145.49S226.75,109.86,277,111.52C327.12,113.18,374.31,150.22,396,194.72Z"/><path class="cls-1" d="M251.9,704.8c25.71,24.51,61.29,30.19,90,53.51,29,23,51.42,64,47.53,102.54-3.88,38.27-34.38,74.44-71.15,82.81-37.07,8.38-81-11.36-130.34-3.58s-104.64,43-141.71,35C9.15,966.68-10,915,5.57,873.11S71,799.27,80.6,749.34C89.87,699.12,59.08,631,71,602c12.25-29,67.26-18.83,103.14,8.07C209.75,636.64,226.19,680.29,251.9,704.8Z"/><path class="cls-1" d="M639.44,938.51c53.29,69.39,113.74,130.19,98.72,165.24-15,34.7-105.52,43.64-168.47,51.87-63.3,8.22-98.71,15.73-162.74,11.8-64-3.58-156.66-18.6-162.74-51.86-6.44-32.91,73.68-84.06,129.84-154.16C430.2,891.65,462,803,501.38,797.23,540.36,791.86,586.15,869.48,639.44,938.51Z"/><path class="cls-1" d="M118.65,17.29c11.1,10,19.3,21.1,28.4,33.1s19.2,24.7,17.6,36.5-14.8,22.7-23.5,35.5-12.7,27.5-22.1,37.9-24.2,16.3-38.1,14.9-27.1-10.5-40.9-18.3-28.6-14.4-35.3-25.7-5.2-27.4-2.5-41.8S9,62,16.25,51.69s17.6-18.1,28.8-28S68.15,1.89,81,.19,107.65,7.39,118.65,17.29Z"/></g></g></svg>