<svg xmlns="http://www.w3.org/2000/svg" viewBox="0 0 743.75 1168.51"><defs><style>.cls-1{fill:#e53c54;}</style></defs><title>Asset 7</title><g id="Layer_2" data-name="Layer 2"><g id="Layer_1-2" data-name="Layer 1"><g id="Layer_1-2-2" data-name="Layer 1-2"><path class="cls-1" d="M153.52,719.55C104.1,687.74,19.44,688.17,3.11,665.83c-16.33-21.92,35.24-66.62,70.48-114.75,35.24-47.7,53.72-99.28,91.11-122.48,37-23.21,92.4-18.91,144.83-1.72A325.5,325.5,0,0,1,453.07,521c42.12,46.84,76.5,110,53.72,150.84-22.35,40.4-102.28,57.59-157.72,88.53-55.44,30.52-86.36,74.78-109.16,65.33C217.56,815.81,203,751.35,153.52,719.55Z"/><path class="cls-1" d="M66.71,1109.15c-15.72-27.86-18.1-56.91-31.44-90.34-13.53-33.43-37.8-71.23-30.64-97.1C12,895.85,51,881.92,89.2,870.18c38-11.74,75.21-21.49,108.64-12.94s63.06,35.62,80.37,68.25c17.11,32.83,21.89,71.43,14.93,107.25a177.82,177.82,0,0,1-53.33,94.91c-27.26,25.67-63.27,43.78-95.91,39.84C111.47,1163.27,82.42,1136.8,66.71,1109.15Z"/><path class="cls-1" d="M347.71,973.77c-21.73-44.7-18.22-97.06,5.38-135.14S420.31,777,466.88,775.09c46.56-1.66,96.23,18.42,122.72,58.16s30,99.13,5.18,145.49S517,1058.63,466.71,1057,369.4,1018.27,347.71,973.77Z"/><path class="cls-1" d="M491.81,463.69c-25.71-24.51-61.29-30.19-90-53.51-29-23-51.42-64-47.53-102.54,3.88-38.27,34.38-74.44,71.15-82.81,37.07-8.38,81,11.36,130.34,3.58s104.64-43,141.71-35c37.08,8.4,56.23,60.08,40.66,102s-65.43,73.84-75,123.77c-9.27,50.22,21.52,118.34,9.6,147.34-12.25,29-67.26,18.83-103.14-8.07C534,531.85,517.52,488.2,491.81,463.69Z"/><path class="cls-1" d="M104.27,230C51,160.59-9.47,99.79,5.55,64.74,20.55,30,111.07,21.1,174,12.87c63.3-8.22,98.71-15.73,162.74-11.8,64,3.58,156.66,18.6,162.74,51.86,6.44,32.91-73.68,84.06-129.84,154.16-56.15,69.75-88,158.4-127.33,164.17C203.35,376.63,157.56,299,104.27,230Z"/><path class="cls-1" d="M625.06,1151.2c-11.1-10-19.3-21.1-28.4-33.1s-19.2-24.7-17.6-36.5,14.8-22.7,23.5-35.5,12.7-27.5,22.1-37.9,24.2-16.3,38.1-14.9,27.1,10.5,40.9,18.3,28.6,14.4,35.3,25.7,5.2,27.4,2.5,41.8-6.75,27.39-14,37.7-17.6,18.1-28.8,28-23.1,21.8-35.95,23.5S636.06,1161.1,625.06,1151.2Z"/></g></g></g></svg>