<svg xmlns="http://www.w3.org/2000/svg" viewBox="0 0 1247.85 1690.76"><defs><style>.cls-1{fill:#edff00;}</style></defs><title>Asset 2</title><g id="Layer_2" data-name="Layer 2"><g id="Layer_3" data-name="Layer 3"><polygon class="cls-1" points="826.45 419.83 1034.65 628.03 750.24 704.24 465.82 780.45 542.03 496.04 618.24 211.62 826.45 419.83"/><polygon class="cls-1" points="542.45 1006.83 750.65 1215.03 466.24 1291.24 181.82 1367.45 258.03 1083.04 334.24 798.62 542.45 1006.83"/><polygon class="cls-1" points="998.83 863.17 1142.39 1006.73 946.28 1059.28 750.16 1111.83 802.71 915.72 855.26 719.6 998.83 863.17"/><polygon class="cls-1" points="303.83 532.17 447.39 675.73 251.28 728.28 55.16 780.83 107.71 584.72 160.26 388.6 303.83 532.17"/><polygon class="cls-1" points="454.99 260 552.56 357.57 419.28 393.28 286 428.99 321.71 295.72 357.42 162.44 454.99 260"/><polygon class="cls-1" points="196.92 155.07 310.61 268.76 155.31 310.38 0 351.99 41.61 196.69 83.23 41.38 196.92 155.07"/><polygon class="cls-1" points="953.99 1229 1051.56 1326.57 918.28 1362.28 785 1397.99 820.71 1264.72 856.42 1131.44 953.99 1229"/><polygon class="cls-1" points="600.17 77.32 677.49 154.64 571.87 182.94 466.25 211.24 494.55 105.62 522.85 0 600.17 77.32"/><polygon class="cls-1" points="831.17 101.32 908.49 178.64 802.87 206.94 697.25 235.24 725.55 129.62 753.85 24 831.17 101.32"/><polygon class="cls-1" points="1133.17 691.32 1210.49 768.64 1104.87 796.94 999.25 825.24 1027.55 719.62 1055.85 614 1133.17 691.32"/><polygon class="cls-1" points="706.17 845.32 783.49 922.64 677.87 950.94 572.25 979.24 600.55 873.62 628.85 768 706.17 845.32"/><polygon class="cls-1" points="368.99 1476 466.56 1573.57 333.28 1609.28 200 1644.99 235.71 1511.72 271.42 1378.44 368.99 1476"/><polygon class="cls-1" points="1104.42 156.57 1247.85 300 1051.92 352.5 856 404.99 908.5 209.07 961 13.15 1104.42 156.57"/><polygon class="cls-1" points="751.76 1434.74 899.57 1582.55 697.65 1636.66 495.73 1690.76 549.84 1488.84 603.94 1286.92 751.76 1434.74"/></g></g></svg>