<svg xmlns="http://www.w3.org/2000/svg" viewBox="0 0 762.03 1141.83"><title>Asset 2</title><g id="Layer_2" data-name="Layer 2"><g id="Layer_1-2" data-name="Layer 1"><path fill="green" d="M1.35,20.26C17.83,31.43,34.07,37,50.3,37s32.44-5.59,48.87-16.76c27.64-18.81,62.53-18.8,91.05,0l.15.08C206.81,31.46,223,37,239.17,37S271.61,31.43,288,20.26c27.64-18.81,62.54-18.8,91,0l.16.08C395.68,31.46,411.87,37,428,37s32.45-5.59,48.87-16.76c27.65-18.81,62.54-18.8,91.06,0a3,3,0,0,0,1.2.46C585.41,31.58,601.41,37,617.4,37c16.22,0,32.44-5.59,48.87-16.76,27.64-18.81,62.53-18.8,91.05,0a3,3,0,0,0,4.21-.89,3.09,3.09,0,0,0-.88-4.25c-30.6-20.2-68.08-20.19-97.79,0-30.57,20.79-60.34,20.79-91,0a3.14,3.14,0,0,0-1.26-.48C540.11-5,503-4.89,473.51,15.17c-30.57,20.79-60.34,20.79-91,0l-.2-.1C351.71-5,314.31-5,284.63,15.17c-30.56,20.79-60.34,20.79-91,0a1.24,1.24,0,0,0-.2-.1C162.84-5,125.43-5,95.76,15.17,65.19,36,35.42,36,4.75,15.16A3,3,0,0,0,.52,16,3.08,3.08,0,0,0,1.35,20.26Z"/><path fill="green" d="M760.65,57.55c-30.61-20.2-68.08-20.19-97.79,0-30.57,20.8-60.34,20.8-91,0a2.87,2.87,0,0,0-1.26-.48c-30.48-19.73-67.59-19.57-97.07.48-30.57,20.8-60.35,20.8-91,0l-.2-.11c-30.58-20.11-68-20.07-97.66.11-30.57,20.8-60.34,20.8-91,0l-.2-.11c-30.58-20.11-68-20.07-97.66.11-30.57,20.8-60.34,20.8-91,0a3,3,0,0,0-4.23.84,3.08,3.08,0,0,0,.83,4.26C17.83,73.84,34.07,79.43,50.3,79.43s32.44-5.59,48.87-16.77c27.64-18.81,62.53-18.79,91.05,0l.15.08c16.43,11.1,32.62,16.66,48.8,16.66S271.61,73.84,288,62.66c27.64-18.81,62.53-18.79,91,0l.16.08c16.43,11.1,32.61,16.66,48.79,16.66s32.44-5.59,48.87-16.77c27.64-18.81,62.54-18.79,91.06,0a3,3,0,0,0,1.2.45C585.4,74,601.4,79.43,617.39,79.43c16.23,0,32.44-5.59,48.88-16.77,27.64-18.81,62.53-18.79,91.05,0a3,3,0,0,0,4.21-.89A3.08,3.08,0,0,0,760.65,57.55Z"/><path fill="green" d="M760.65,100c-30.61-20.19-68.08-20.18-97.79,0-30.57,20.79-60.34,20.8-91,0a3.14,3.14,0,0,0-1.26-.48C540.1,79.78,503,79.93,473.51,100c-30.57,20.79-60.34,20.8-91,0l-.2-.1c-30.58-20.1-68-20.07-97.66.11-30.56,20.79-60.33,20.8-91,0l-.2-.1c-30.58-20.1-68-20.07-97.66.11-30.56,20.79-60.33,20.8-91,0a3,3,0,0,0-4.23.84,3.34,3.34,0,0,0,.83,4.45C17.83,116.43,34.07,122,50.3,122s32.44-5.59,48.87-16.76c27.64-18.81,62.53-18.8,91.05,0l.15.08C206.81,116.46,223,122,239.17,122s32.44-5.59,48.87-16.76c27.64-18.81,62.54-18.8,91,0l.16.08C395.68,116.46,411.87,122,428,122s32.45-5.59,48.87-16.76c27.65-18.81,62.54-18.8,91.06,0a3,3,0,0,0,1.2.46C585.41,116.58,601.41,122,617.4,122c16.22,0,32.44-5.59,48.87-16.76,27.64-18.81,62.53-18.8,91.05,0a3,3,0,0,0,4.7-2.69A3.07,3.07,0,0,0,760.65,100Z"/><path fill="green" d="M760.65,142.55c-30.61-20.2-68.08-20.19-97.79,0-30.57,20.8-60.34,20.8-91,0a2.87,2.87,0,0,0-1.26-.48c-30.48-19.73-67.59-19.57-97.07.48-30.57,20.8-60.35,20.8-91,0l-.2-.11c-30.58-20.11-68-20.07-97.66.11-30.57,20.8-60.34,20.8-91,0l-.2-.11c-30.58-20.11-68-20.07-97.66.11-30.57,20.8-60.34,20.8-91,0a3,3,0,0,0-4.23.84,3.08,3.08,0,0,0,.83,4.26c16.48,11.17,32.72,16.76,48.95,16.76s32.44-5.59,48.87-16.77c27.64-18.81,62.53-18.79,91.05,0l.15.08c16.43,11.1,32.62,16.66,48.8,16.66s32.44-5.59,48.87-16.77c27.64-18.81,62.53-18.79,91,0l.16.08c16.43,11.1,32.61,16.66,48.79,16.66s32.44-5.59,48.87-16.77c27.64-18.81,62.54-18.79,91.06,0a3,3,0,0,0,1.2.45c16.23,10.85,32.23,16.29,48.22,16.29,16.23,0,32.44-5.59,48.88-16.77,27.64-18.81,62.53-18.79,91.05,0a3,3,0,0,0,4.21-.89A3.08,3.08,0,0,0,760.65,142.55Z"/><path fill="green" d="M760.65,185c-30.61-20.19-68.08-20.18-97.79,0-30.57,20.79-60.34,20.8-91,0a3.14,3.14,0,0,0-1.26-.48c-30.48-19.71-67.59-19.56-97.07.49-30.57,20.79-60.34,20.8-91,0l-.2-.1c-30.58-20.1-68-20.07-97.66.11-30.56,20.79-60.33,20.8-91,0l-.2-.1c-30.58-20.1-68-20.07-97.66.11-30.56,20.79-60.33,20.8-91,0a3,3,0,0,0-4.23.84,3.34,3.34,0,0,0,.83,4.45C17.83,201.43,34.07,207,50.3,207s32.44-5.59,48.87-16.76c27.64-18.81,62.53-18.8,91.05,0l.15.08C206.81,201.46,223,207,239.17,207s32.44-5.59,48.87-16.76c27.64-18.81,62.54-18.8,91,0l.16.08C395.68,201.46,411.87,207,428,207s32.45-5.59,48.87-16.76c27.65-18.81,62.54-18.8,91.06,0a3,3,0,0,0,1.2.46C585.41,201.58,601.41,207,617.4,207c16.22,0,32.44-5.59,48.87-16.76,27.64-18.81,62.53-18.8,91.05,0a3,3,0,0,0,4.7-2.69A3.07,3.07,0,0,0,760.65,185Z"/><path fill="green" d="M760.65,227.55c-30.61-20.2-68.08-20.19-97.79,0-30.57,20.8-60.34,20.8-91,0a2.87,2.87,0,0,0-1.26-.48c-30.48-19.73-67.59-19.57-97.07.48-30.57,20.8-60.35,20.8-91,0l-.2-.11c-30.58-20.11-68-20.07-97.66.11-30.57,20.8-60.34,20.8-91,0l-.2-.11c-30.58-20.11-68-20.07-97.66.11-30.57,20.8-60.34,20.8-91,0a3,3,0,0,0-4.23.84,3.08,3.08,0,0,0,.83,4.26c16.48,11.17,32.72,16.76,48.95,16.76s32.44-5.59,48.87-16.77c27.64-18.81,62.53-18.79,91.05,0l.15.08c16.43,11.1,32.62,16.66,48.8,16.66s32.44-5.59,48.87-16.77c27.64-18.81,62.53-18.79,91,0l.16.08c16.43,11.1,32.61,16.66,48.79,16.66s32.44-5.59,48.87-16.77c27.64-18.81,62.54-18.79,91.06,0a3,3,0,0,0,1.2.45c16.23,10.85,32.23,16.29,48.22,16.29,16.23,0,32.44-5.59,48.88-16.77,27.64-18.81,62.53-18.79,91.05,0a3,3,0,0,0,4.21-.89A3.08,3.08,0,0,0,760.65,227.55Z"/><path fill="green" d="M760.65,270c-30.61-20.19-68.08-20.18-97.79,0-30.57,20.79-60.34,20.8-91,0a3.14,3.14,0,0,0-1.26-.48c-30.48-19.71-67.59-19.56-97.07.49-30.57,20.79-60.34,20.8-91,0l-.2-.1c-30.58-20.1-68-20.07-97.66.11-30.56,20.79-60.33,20.8-91,0l-.2-.1c-30.58-20.1-68-20.07-97.66.11-30.56,20.79-60.33,20.8-91,0a3,3,0,0,0-4.23.84,3.34,3.34,0,0,0,.83,4.45C17.83,286.43,34.07,292,50.3,292s32.44-5.59,48.87-16.76c27.64-18.81,62.53-18.8,91.05,0l.15.08C206.81,286.46,223,292,239.17,292s32.44-5.59,48.87-16.76c27.64-18.81,62.54-18.8,91,0l.16.08C395.68,286.46,411.87,292,428,292s32.45-5.59,48.87-16.76c27.65-18.81,62.54-18.8,91.06,0a3,3,0,0,0,1.2.46C585.41,286.58,601.41,292,617.4,292c16.22,0,32.44-5.59,48.87-16.76,27.64-18.81,62.53-18.8,91.05,0a3,3,0,0,0,4.7-2.69A3.07,3.07,0,0,0,760.65,270Z"/><path fill="green" d="M760.65,312.55c-30.61-20.2-68.08-20.19-97.79,0-30.57,20.8-60.34,20.8-91,0a2.87,2.87,0,0,0-1.26-.48c-30.48-19.73-67.59-19.57-97.07.48-30.57,20.8-60.35,20.8-91,0l-.2-.11c-30.58-20.11-68-20.07-97.66.11-30.57,20.8-60.34,20.8-91,0l-.2-.11c-30.58-20.11-68-20.07-97.66.11-30.57,20.8-60.34,20.8-91,0a3,3,0,0,0-4.23.84,3.08,3.08,0,0,0,.83,4.26c16.48,11.17,32.72,16.76,48.95,16.76s32.44-5.59,48.87-16.77c27.64-18.81,62.53-18.79,91.05,0l.15.08c16.43,11.1,32.62,16.66,48.8,16.66s32.44-5.59,48.87-16.77c27.64-18.81,62.53-18.79,91,0l.16.08c16.43,11.1,32.61,16.66,48.79,16.66s32.44-5.59,48.87-16.77c27.64-18.81,62.54-18.79,91.06,0a3,3,0,0,0,1.2.45c16.23,10.85,32.23,16.29,48.22,16.29,16.23,0,32.44-5.59,48.88-16.77,27.64-18.81,62.53-18.79,91.05,0a3,3,0,0,0,4.21-.89A3.08,3.08,0,0,0,760.65,312.55Z"/><path fill="green" d="M760.65,355c-30.61-20.19-68.08-20.18-97.79,0-30.57,20.79-60.34,20.8-91,0a3.14,3.14,0,0,0-1.26-.48c-30.48-19.71-67.59-19.56-97.07.49-30.57,20.79-60.34,20.8-91,0l-.2-.1c-30.58-20.1-68-20.07-97.66.11-30.56,20.79-60.33,20.8-91,0l-.2-.1c-30.58-20.1-68-20.07-97.66.11-30.56,20.79-60.33,20.8-91,0a3,3,0,0,0-4.23.84,3.34,3.34,0,0,0,.83,4.45C17.83,371.43,34.07,377,50.3,377s32.44-5.59,48.87-16.76c27.64-18.81,62.53-18.8,91.05,0l.15.08C206.81,371.46,223,377,239.17,377s32.44-5.59,48.87-16.76c27.64-18.81,62.54-18.8,91,0l.16.08C395.68,371.46,411.87,377,428,377s32.45-5.59,48.87-16.76c27.65-18.81,62.54-18.8,91.06,0a3,3,0,0,0,1.2.46C585.41,371.58,601.41,377,617.4,377c16.22,0,32.44-5.59,48.87-16.76,27.64-18.81,62.53-18.8,91.05,0a3,3,0,0,0,4.7-2.69A3.07,3.07,0,0,0,760.65,355Z"/><path fill="green" d="M760.65,397.55c-30.61-20.2-68.08-20.19-97.79,0-30.57,20.8-60.34,20.8-91,0a2.87,2.87,0,0,0-1.26-.48c-30.48-19.73-67.59-19.57-97.07.48-30.57,20.8-60.35,20.8-91,0l-.2-.11c-30.58-20.11-68-20.07-97.66.11-30.57,20.8-60.34,20.8-91,0l-.2-.11c-30.58-20.11-68-20.07-97.66.11-30.57,20.8-60.34,20.8-91,0a3,3,0,0,0-4.23.84,3.08,3.08,0,0,0,.83,4.26c16.48,11.17,32.72,16.76,48.95,16.76s32.44-5.59,48.87-16.77c27.64-18.81,62.53-18.79,91.05,0l.15.08c16.43,11.1,32.62,16.66,48.8,16.66s32.44-5.59,48.87-16.77c27.64-18.81,62.53-18.79,91,0l.16.08c16.43,11.1,32.61,16.66,48.79,16.66s32.44-5.59,48.87-16.77c27.64-18.81,62.54-18.79,91.06,0a3,3,0,0,0,1.2.45c16.23,10.85,32.23,16.29,48.22,16.29,16.23,0,32.44-5.59,48.88-16.77,27.64-18.81,62.53-18.79,91.05,0a3,3,0,0,0,4.21-.89A3.08,3.08,0,0,0,760.65,397.55Z"/><path fill="green" d="M760.65,440c-30.61-20.19-68.08-20.18-97.79,0-30.57,20.79-60.34,20.8-91,0a3.14,3.14,0,0,0-1.26-.48c-30.48-19.71-67.59-19.56-97.07.49-30.57,20.79-60.34,20.8-91,0l-.2-.1c-30.58-20.1-68-20.07-97.66.11-30.56,20.79-60.33,20.8-91,0l-.2-.1c-30.58-20.1-68-20.07-97.66.11-30.56,20.79-60.33,20.8-91,0a3,3,0,0,0-4.23.84,3.34,3.34,0,0,0,.83,4.45C17.83,456.43,34.07,462,50.3,462s32.44-5.59,48.87-16.76c27.64-18.81,62.53-18.8,91.05,0l.15.08C206.81,456.46,223,462,239.17,462s32.44-5.59,48.87-16.76c27.64-18.81,62.54-18.8,91,0l.16.08C395.68,456.46,411.87,462,428,462s32.45-5.59,48.87-16.76c27.65-18.81,62.54-18.8,91.06,0a3,3,0,0,0,1.2.46C585.41,456.58,601.41,462,617.4,462c16.22,0,32.44-5.59,48.87-16.76,27.64-18.81,62.53-18.8,91.05,0a3,3,0,0,0,4.7-2.69A3.07,3.07,0,0,0,760.65,440Z"/><path fill="green" d="M760.65,482.55c-30.61-20.2-68.08-20.19-97.79,0-30.57,20.8-60.34,20.8-91,0a2.87,2.87,0,0,0-1.26-.48c-30.48-19.73-67.59-19.57-97.07.48-30.57,20.8-60.35,20.8-91,0l-.2-.11c-30.58-20.11-68-20.07-97.66.11-30.57,20.8-60.34,20.8-91,0l-.2-.11c-30.58-20.11-68-20.07-97.66.11-30.57,20.8-60.34,20.8-91,0a3,3,0,0,0-4.23.84,3.08,3.08,0,0,0,.83,4.26c16.48,11.17,32.72,16.76,48.95,16.76s32.44-5.59,48.87-16.77c27.64-18.81,62.53-18.79,91.05,0l.15.08c16.43,11.1,32.62,16.66,48.8,16.66s32.44-5.59,48.87-16.77c27.64-18.81,62.53-18.79,91,0l.16.08c16.43,11.1,32.61,16.66,48.79,16.66s32.44-5.59,48.87-16.77c27.64-18.81,62.54-18.79,91.06,0a3,3,0,0,0,1.2.45c16.23,10.85,32.23,16.29,48.22,16.29,16.23,0,32.44-5.59,48.88-16.77,27.64-18.81,62.53-18.79,91.05,0a3,3,0,0,0,4.21-.89A3.08,3.08,0,0,0,760.65,482.55Z"/><path fill="green" d="M760.65,525c-30.61-20.19-68.08-20.18-97.79,0-30.57,20.79-60.34,20.8-91,0a3.14,3.14,0,0,0-1.26-.48c-30.48-19.71-67.59-19.56-97.07.49-30.57,20.79-60.34,20.8-91,0-.06,0-.13-.06-.2-.1-30.58-20.1-68-20.07-97.66.11-30.56,20.79-60.33,20.8-91,0-.06,0-.13-.06-.2-.1-30.58-20.1-68-20.07-97.66.11-30.56,20.79-60.33,20.8-91,0a3,3,0,0,0-4.23.84,3.34,3.34,0,0,0,.83,4.45C17.83,541.43,34.07,547,50.3,547s32.44-5.59,48.87-16.76c27.64-18.81,62.53-18.8,91.05,0l.15.08C206.81,541.46,223,547,239.17,547s32.44-5.59,48.87-16.76c27.64-18.81,62.54-18.8,91,0l.16.08C395.68,541.46,411.87,547,428,547s32.45-5.59,48.87-16.76c27.65-18.81,62.54-18.8,91.06,0a3,3,0,0,0,1.2.46C585.41,541.58,601.41,547,617.4,547c16.22,0,32.44-5.59,48.87-16.76,27.64-18.81,62.53-18.8,91.05,0a3,3,0,0,0,4.7-2.69A3.07,3.07,0,0,0,760.65,525Z"/><path fill="green" d="M760.65,567.55c-30.61-20.2-68.08-20.19-97.79,0-30.57,20.8-60.34,20.8-91,0a2.87,2.87,0,0,0-1.26-.48c-30.48-19.73-67.59-19.57-97.07.48-30.57,20.8-60.35,20.8-91,0l-.2-.11c-30.58-20.11-68-20.07-97.66.11-30.57,20.8-60.34,20.8-91,0l-.2-.11c-30.58-20.11-68-20.07-97.66.11-30.57,20.8-60.34,20.8-91,0a3,3,0,0,0-4.23.84,3.08,3.08,0,0,0,.83,4.26c16.48,11.17,32.72,16.76,48.95,16.76s32.44-5.59,48.87-16.77c27.64-18.81,62.53-18.79,91.05,0l.15.08c16.43,11.1,32.62,16.66,48.8,16.66s32.44-5.59,48.87-16.77c27.64-18.81,62.53-18.79,91,0l.16.08c16.43,11.1,32.61,16.66,48.79,16.66s32.44-5.59,48.87-16.77c27.64-18.81,62.54-18.79,91.06,0a3,3,0,0,0,1.2.45c16.23,10.85,32.23,16.29,48.22,16.29,16.23,0,32.44-5.59,48.88-16.77,27.64-18.81,62.53-18.79,91.05,0a3,3,0,0,0,4.21-.89A3.08,3.08,0,0,0,760.65,567.55Z"/><path fill="green" d="M760.65,610c-30.61-20.19-68.08-20.18-97.79,0-30.57,20.79-60.34,20.8-91,0a3.14,3.14,0,0,0-1.26-.48c-30.48-19.71-67.59-19.56-97.07.49-30.57,20.79-60.34,20.8-91,0-.06,0-.13-.06-.2-.1-30.58-20.1-68-20.07-97.66.11-30.56,20.79-60.33,20.8-91,0-.06,0-.13-.06-.2-.1-30.58-20.1-68-20.07-97.66.11-30.56,20.79-60.33,20.8-91,0a3,3,0,0,0-4.23.84,3.34,3.34,0,0,0,.83,4.45C17.83,626.43,34.07,632,50.3,632s32.44-5.59,48.87-16.76c27.64-18.81,62.53-18.8,91.05,0l.15.08C206.81,626.46,223,632,239.17,632s32.44-5.59,48.87-16.76c27.64-18.81,62.54-18.8,91,0l.16.08C395.68,626.46,411.87,632,428,632s32.45-5.59,48.87-16.76c27.65-18.81,62.54-18.8,91.06,0a3,3,0,0,0,1.2.46C585.41,626.58,601.41,632,617.4,632c16.22,0,32.44-5.59,48.87-16.76,27.64-18.81,62.53-18.8,91.05,0a3,3,0,0,0,4.7-2.69A3.07,3.07,0,0,0,760.65,610Z"/><path fill="green" d="M760.65,652.55c-30.61-20.2-68.08-20.19-97.79,0-30.57,20.8-60.34,20.8-91,0a2.87,2.87,0,0,0-1.26-.48c-30.48-19.73-67.59-19.57-97.07.48-30.57,20.8-60.35,20.8-91,0l-.2-.11c-30.58-20.11-68-20.07-97.66.11-30.57,20.8-60.34,20.8-91,0l-.2-.11c-30.58-20.11-68-20.07-97.66.11-30.57,20.8-60.34,20.8-91,0a3,3,0,0,0-4.23.84,3.08,3.08,0,0,0,.83,4.26c16.48,11.17,32.72,16.76,48.95,16.76s32.44-5.59,48.87-16.77c27.64-18.81,62.53-18.79,91.05,0l.15.08c16.43,11.1,32.62,16.66,48.8,16.66s32.44-5.59,48.87-16.77c27.64-18.81,62.53-18.79,91,0l.16.08c16.43,11.1,32.61,16.66,48.79,16.66s32.44-5.59,48.87-16.77c27.64-18.81,62.54-18.79,91.06,0a3,3,0,0,0,1.2.45c16.23,10.85,32.23,16.29,48.22,16.29,16.23,0,32.44-5.59,48.88-16.77,27.64-18.81,62.53-18.79,91.05,0a3,3,0,0,0,4.21-.89A3.08,3.08,0,0,0,760.65,652.55Z"/><path fill="green" d="M760.65,695c-30.61-20.19-68.08-20.18-97.79,0-30.57,20.79-60.34,20.8-91,0a3.14,3.14,0,0,0-1.26-.48c-30.48-19.71-67.59-19.56-97.07.49-30.57,20.79-60.34,20.8-91,0-.06,0-.13-.06-.2-.1-30.58-20.1-68-20.07-97.66.11-30.56,20.79-60.33,20.8-91,0-.06,0-.13-.06-.2-.1-30.58-20.1-68-20.07-97.66.11-30.56,20.79-60.33,20.8-91,0a3,3,0,0,0-4.23.84,3.34,3.34,0,0,0,.83,4.45C17.83,711.43,34.07,717,50.3,717s32.44-5.59,48.87-16.76c27.64-18.81,62.53-18.8,91.05,0l.15.08C206.81,711.46,223,717,239.17,717s32.44-5.59,48.87-16.76c27.64-18.81,62.54-18.8,91,0l.16.08C395.68,711.46,411.87,717,428,717s32.45-5.59,48.87-16.76c27.65-18.81,62.54-18.8,91.06,0a3,3,0,0,0,1.2.46C585.41,711.58,601.41,717,617.4,717c16.22,0,32.44-5.59,48.87-16.76,27.64-18.81,62.53-18.8,91.05,0a3,3,0,0,0,4.7-2.69A3.07,3.07,0,0,0,760.65,695Z"/><path fill="green" d="M760.65,737.55c-30.61-20.2-68.08-20.19-97.79,0-30.57,20.8-60.34,20.8-91,0a2.87,2.87,0,0,0-1.26-.48c-30.48-19.73-67.59-19.57-97.07.48-30.57,20.8-60.35,20.8-91,0l-.2-.11c-30.58-20.11-68-20.07-97.66.11-30.57,20.8-60.34,20.8-91,0l-.2-.11c-30.58-20.11-68-20.07-97.66.11-30.57,20.8-60.34,20.8-91,0a3,3,0,0,0-4.23.84,3.08,3.08,0,0,0,.83,4.26c16.48,11.17,32.72,16.76,48.95,16.76s32.44-5.59,48.87-16.77c27.64-18.81,62.53-18.79,91.05,0l.15.08c16.43,11.1,32.62,16.66,48.8,16.66s32.44-5.59,48.87-16.77c27.64-18.81,62.53-18.79,91,0l.16.08c16.43,11.1,32.61,16.66,48.79,16.66s32.44-5.59,48.87-16.77c27.64-18.81,62.54-18.79,91.06,0a3,3,0,0,0,1.2.45c16.23,10.85,32.23,16.29,48.22,16.29,16.23,0,32.44-5.59,48.88-16.77,27.64-18.81,62.53-18.79,91.05,0a3,3,0,0,0,4.21-.89A3.08,3.08,0,0,0,760.65,737.55Z"/><path fill="green" d="M760.65,780c-30.61-20.19-68.08-20.18-97.79,0-30.57,20.79-60.34,20.8-91,0a3.14,3.14,0,0,0-1.26-.48c-30.48-19.71-67.59-19.56-97.07.49-30.57,20.79-60.34,20.8-91,0-.06,0-.13-.06-.2-.1-30.58-20.1-68-20.07-97.66.11-30.56,20.79-60.33,20.8-91,0-.06,0-.13-.06-.2-.1-30.58-20.1-68-20.07-97.66.11-30.56,20.79-60.33,20.8-91,0a3,3,0,0,0-4.23.84,3.34,3.34,0,0,0,.83,4.45C17.83,796.43,34.07,802,50.3,802s32.44-5.59,48.87-16.76c27.64-18.81,62.53-18.8,91.05,0l.15.08C206.81,796.46,223,802,239.17,802s32.44-5.59,48.87-16.76c27.64-18.81,62.54-18.8,91,0l.16.08C395.68,796.46,411.87,802,428,802s32.45-5.59,48.87-16.76c27.65-18.81,62.54-18.8,91.06,0a3,3,0,0,0,1.2.46C585.41,796.58,601.41,802,617.4,802c16.22,0,32.44-5.59,48.87-16.76,27.64-18.81,62.53-18.8,91.05,0a3,3,0,0,0,4.7-2.69A3.07,3.07,0,0,0,760.65,780Z"/><path fill="green" d="M760.65,822.55c-30.61-20.2-68.08-20.19-97.79,0-30.57,20.8-60.34,20.8-91,0a2.87,2.87,0,0,0-1.26-.48c-30.48-19.73-67.59-19.57-97.07.48-30.57,20.8-60.35,20.8-91,0l-.2-.11c-30.58-20.11-68-20.07-97.66.11-30.57,20.8-60.34,20.8-91,0l-.2-.11c-30.58-20.11-68-20.07-97.66.11-30.57,20.8-60.34,20.8-91,0a3,3,0,0,0-4.23.84,3.08,3.08,0,0,0,.83,4.26c16.48,11.17,32.72,16.76,48.95,16.76s32.44-5.59,48.87-16.77c27.64-18.81,62.53-18.79,91.05,0l.15.08c16.43,11.1,32.62,16.66,48.8,16.66s32.44-5.59,48.87-16.77c27.64-18.81,62.53-18.79,91,0l.16.08c16.43,11.1,32.61,16.66,48.79,16.66s32.44-5.59,48.87-16.77c27.64-18.81,62.54-18.79,91.06,0a3,3,0,0,0,1.2.45c16.23,10.85,32.23,16.29,48.22,16.29,16.23,0,32.44-5.59,48.88-16.77,27.64-18.81,62.53-18.79,91.05,0a3,3,0,0,0,4.21-.89A3.08,3.08,0,0,0,760.65,822.55Z"/><path fill="green" d="M760.65,865c-30.61-20.19-68.08-20.18-97.79,0-30.57,20.79-60.34,20.8-91,0a3.14,3.14,0,0,0-1.26-.48c-30.48-19.71-67.59-19.56-97.07.49-30.57,20.79-60.34,20.8-91,0-.06,0-.13-.06-.2-.1-30.58-20.1-68-20.07-97.66.11-30.56,20.79-60.33,20.8-91,0-.06,0-.13-.06-.2-.1-30.58-20.1-68-20.07-97.66.11-30.56,20.79-60.33,20.8-91,0a3,3,0,0,0-4.23.84,3.34,3.34,0,0,0,.83,4.45C17.83,881.43,34.07,887,50.3,887s32.44-5.59,48.87-16.76c27.64-18.81,62.53-18.8,91.05,0l.15.08C206.81,881.46,223,887,239.17,887s32.44-5.59,48.87-16.76c27.64-18.81,62.54-18.8,91,0l.16.08C395.68,881.46,411.87,887,428,887s32.45-5.59,48.87-16.76c27.65-18.81,62.54-18.8,91.06,0a3,3,0,0,0,1.2.46C585.41,881.58,601.41,887,617.4,887c16.22,0,32.44-5.59,48.87-16.76,27.64-18.81,62.53-18.8,91.05,0a3,3,0,0,0,4.7-2.69A3.07,3.07,0,0,0,760.65,865Z"/><path fill="green" d="M760.65,907.55c-30.61-20.2-68.08-20.19-97.79,0-30.57,20.8-60.34,20.8-91,0a2.87,2.87,0,0,0-1.26-.48c-30.48-19.73-67.59-19.57-97.07.48-30.57,20.8-60.35,20.8-91,0l-.2-.11c-30.58-20.11-68-20.07-97.66.11-30.57,20.8-60.34,20.8-91,0l-.2-.11c-30.58-20.11-68-20.07-97.66.11-30.57,20.8-60.34,20.8-91,0a3,3,0,0,0-4.23.84,3.08,3.08,0,0,0,.83,4.26c16.48,11.17,32.72,16.76,48.95,16.76s32.44-5.59,48.87-16.77c27.64-18.81,62.53-18.79,91.05,0l.15.08c16.43,11.1,32.62,16.66,48.8,16.66s32.44-5.59,48.87-16.77c27.64-18.81,62.53-18.79,91,0l.16.08c16.43,11.1,32.61,16.66,48.79,16.66s32.44-5.59,48.87-16.77c27.64-18.81,62.54-18.79,91.06,0a3,3,0,0,0,1.2.45c16.23,10.85,32.23,16.29,48.22,16.29,16.23,0,32.44-5.59,48.88-16.77,27.64-18.81,62.53-18.79,91.05,0a3,3,0,0,0,4.21-.89A3.08,3.08,0,0,0,760.65,907.55Z"/><path fill="green" d="M760.65,950c-30.61-20.19-68.08-20.18-97.79,0-30.57,20.79-60.34,20.8-91,0a3.14,3.14,0,0,0-1.26-.48c-30.48-19.71-67.59-19.56-97.07.49-30.57,20.79-60.34,20.8-91,0-.06,0-.13-.06-.2-.1-30.58-20.1-68-20.07-97.66.11-30.56,20.79-60.33,20.8-91,0-.06,0-.13-.06-.2-.1-30.58-20.1-68-20.07-97.66.11-30.56,20.79-60.33,20.8-91,0a3,3,0,0,0-4.23.84,3.34,3.34,0,0,0,.83,4.45C17.83,966.43,34.07,972,50.3,972s32.44-5.59,48.87-16.76c27.64-18.81,62.53-18.8,91.05,0l.15.08C206.81,966.46,223,972,239.17,972s32.44-5.59,48.87-16.76c27.64-18.81,62.54-18.8,91,0l.16.08C395.68,966.46,411.87,972,428,972s32.45-5.59,48.87-16.76c27.65-18.81,62.54-18.8,91.06,0a3,3,0,0,0,1.2.46C585.41,966.58,601.41,972,617.4,972c16.22,0,32.44-5.59,48.87-16.76,27.64-18.81,62.53-18.8,91.05,0a3,3,0,0,0,4.7-2.69A3.07,3.07,0,0,0,760.65,950Z"/><path fill="green" d="M760.65,992.55c-30.61-20.2-68.08-20.19-97.79,0-30.57,20.8-60.34,20.8-91,0a2.87,2.87,0,0,0-1.26-.48c-30.48-19.73-67.59-19.57-97.07.48-30.57,20.8-60.35,20.8-91,0l-.2-.11c-30.58-20.11-68-20.07-97.66.11-30.57,20.8-60.34,20.8-91,0l-.2-.11c-30.58-20.11-68-20.07-97.66.11-30.57,20.8-60.34,20.8-91,0a3,3,0,0,0-4.23.84,3.08,3.08,0,0,0,.83,4.26c16.48,11.17,32.72,16.76,48.95,16.76s32.44-5.59,48.87-16.77c27.64-18.81,62.53-18.79,91.05,0l.15.08c16.43,11.1,32.62,16.66,48.8,16.66s32.44-5.59,48.87-16.77c27.64-18.81,62.53-18.79,91,0l.16.08c16.43,11.1,32.61,16.66,48.79,16.66s32.44-5.59,48.87-16.77c27.64-18.81,62.54-18.79,91.06,0a3,3,0,0,0,1.2.45c16.23,10.85,32.23,16.29,48.22,16.29,16.23,0,32.44-5.59,48.88-16.77,27.64-18.81,62.53-18.79,91.05,0a3,3,0,0,0,4.21-.89A3.08,3.08,0,0,0,760.65,992.55Z"/><path fill="green" d="M760.65,1035c-30.61-20.19-68.08-20.18-97.79,0-30.57,20.8-60.34,20.8-91,0a3.14,3.14,0,0,0-1.26-.48c-30.48-19.71-67.59-19.56-97.07.49-30.57,20.8-60.34,20.8-91,0l-.2-.1c-30.58-20.1-68-20.07-97.66.11-30.56,20.8-60.33,20.8-91,0l-.2-.1c-30.58-20.1-68-20.07-97.66.11-30.56,20.8-60.33,20.8-91,0a3,3,0,0,0-4.23.84,3.34,3.34,0,0,0,.83,4.45C17.83,1051.43,34.07,1057,50.3,1057s32.44-5.59,48.87-16.76c27.64-18.81,62.53-18.8,91.05,0l.15.08c16.44,11.1,32.62,16.66,48.8,16.66s32.44-5.59,48.87-16.76c27.64-18.81,62.54-18.8,91,0l.16.08c16.43,11.1,32.62,16.66,48.79,16.66s32.45-5.59,48.87-16.76c27.65-18.81,62.54-18.8,91.06,0a3,3,0,0,0,1.2.46c16.24,10.84,32.24,16.28,48.23,16.28,16.22,0,32.44-5.59,48.87-16.76,27.64-18.81,62.53-18.8,91.05,0a3,3,0,0,0,4.7-2.69A3.07,3.07,0,0,0,760.65,1035Z"/><path fill="green" d="M760.65,1077.55c-30.61-20.2-68.08-20.19-97.79,0-30.57,20.8-60.34,20.8-91,0a2.87,2.87,0,0,0-1.26-.48c-30.48-19.73-67.59-19.57-97.07.48-30.57,20.8-60.35,20.8-91,0l-.2-.11c-30.58-20.11-68-20.07-97.66.11-30.57,20.8-60.34,20.8-91,0l-.2-.11c-30.58-20.11-68-20.07-97.66.11-30.57,20.8-60.34,20.8-91,0a3,3,0,0,0-4.23.84,3.08,3.08,0,0,0,.83,4.26c16.48,11.17,32.72,16.76,48.95,16.76s32.44-5.59,48.87-16.77c27.64-18.81,62.53-18.79,91.05,0l.15.08c16.43,11.1,32.62,16.66,48.8,16.66s32.44-5.59,48.87-16.77c27.64-18.81,62.53-18.79,91,0l.16.08c16.43,11.1,32.61,16.66,48.79,16.66s32.44-5.59,48.87-16.77c27.64-18.81,62.54-18.79,91.06,0a3,3,0,0,0,1.2.45c16.23,10.85,32.23,16.29,48.22,16.29,16.23,0,32.44-5.59,48.88-16.77,27.64-18.81,62.53-18.79,91.05,0a3,3,0,0,0,4.21-.89A3.08,3.08,0,0,0,760.65,1077.55Z"/><path fill="green" d="M760.65,1120c-30.61-20.19-68.08-20.18-97.79,0-30.57,20.8-60.34,20.8-91,0a3.14,3.14,0,0,0-1.26-.48c-30.48-19.71-67.59-19.56-97.07.49-30.57,20.8-60.34,20.8-91,0l-.2-.1c-30.58-20.1-68-20.07-97.66.11-30.56,20.8-60.33,20.8-91,0l-.2-.1c-30.58-20.1-68-20.07-97.66.11-30.56,20.8-60.33,20.8-91,0a3,3,0,0,0-4.23.84,3.08,3.08,0,0,0,.83,4.26c16.48,11.18,32.72,16.77,48.95,16.76s32.44-5.59,48.87-16.76c27.64-18.8,62.53-18.8,91.05,0a1.09,1.09,0,0,0,.15.08c16.43,11.11,32.62,16.67,48.8,16.66s32.44-5.59,48.87-16.76c27.64-18.8,62.53-18.8,91,0a1.09,1.09,0,0,0,.15.08c16.44,11.11,32.63,16.67,48.8,16.66s32.45-5.59,48.87-16.76c27.65-18.8,62.54-18.8,91.06,0a2.85,2.85,0,0,0,1.2.46c16.24,10.85,32.24,16.29,48.23,16.28,16.22,0,32.44-5.59,48.86-16.76,27.65-18.8,62.54-18.8,91.06,0a3,3,0,0,0,4.21-.88A3.1,3.1,0,0,0,760.65,1120Z"/></g></g></svg>